{
  "accessors": [
    {
      "bufferView": 2,
      "componentType": 5126,
      "count": 50,
      "max": [
        12.221600532531738,
        0.09099996089935303,
        0.09099996089935303
      ],
      "min": [
        -0.09099996089935303,
        -0.09099996089935303,
        -0.09099996089935303
      ],
      "type": "VEC3"
    },
    {
      "bufferView": 2,
      "byteOffset": 600,
      "componentType": 5126,
      "count": 50,
      "max": [
        1.0,
        1.0,
        1.0
      ],
      "min": [
        -1.0,
        -1.0,
        -1.0
      ],
      "type": "VEC3"
    },
    {
      "bufferView": 1,
      "componentType": 5126,
      "count": 50,
      "max": [
        0.875,
        1.0
      ],
      "min": [
        0.125,
        0.0
      ],
      "type": "VEC2"
    },
    {
      "bufferView": 0,
      "componentType": 5125,
      "count": 84,
      "type": "SCALAR"
    },
    {
      "bufferView": 2,
      "byteOffset": 1200,
      "componentType": 5126,
      "count": 1335,
      "max": [
        1.3362184762954712,
        0.30827903747558594,
        0.3391815423965454
      ],
      "min": [
        -1.3362184762954712,
        -2.111506938934326,
        -0.33918148279190063
      ],
      "type": "VEC3"
    },
    {
      "bufferView": 2,
      "byteOffset": 17220,
      "componentType": 5126,
      "count": 1335,
      "max": [
        1.0,
        1.0,
        1.0
      ],
      "min": [
        -1.0,
        -1.0,
        -1.0
      ],
      "type": "VEC3"
    },
    {
      "bufferView": 1,
      "byteOffset": 400,
      "componentType": 5126,
      "count": 1335,
      "max": [
        1.000604271888733,
        1.000000238418579
      ],
      "min": [
        -0.0006042594322934747,
        0.01000000536441803
      ],
      "type": "VEC2"
    },
    {
      "bufferView": 0,
      "byteOffset": 336,
      "componentType": 5125,
      "count": 6492,
      "type": "SCALAR"
    },
    {
      "bufferView": 2,
      "byteOffset": 33240,
      "componentType": 5126,
      "count": 24,
      "max": [
        0.09099996089935303,
        0.0,
        0.09099996089935303
      ],
      "min": [
        -0.09099996089935303,
        -0.0021128421649336815,
        -0.09099996089935303
      ],
      "type": "VEC3"
    },
    {
      "bufferView": 2,
      "byteOffset": 33528,
      "componentType": 5126,
      "count": 24,
      "max": [
        1.0,
        1.0,
        1.0
      ],
      "min": [
        -1.0,
        -1.0,
        -1.0
      ],
      "type": "VEC3"
    },
    {
      "bufferView": 1,
      "byteOffset": 11080,
      "componentType": 5126,
      "count": 24,
      "max": [
        1.0,
        1.0
      ],
      "min": [
        0.0,
        0.0
      ],
      "type": "VEC2"
    },
    {
      "bufferView": 0,
      "byteOffset": 26304,
      "componentType": 5125,
      "count": 36,
      "type": "SCALAR"
    },
    {
      "bufferView": 2,
      "byteOffset": 33816,
      "componentType": 5126,
      "count": 46,
      "max": [
        0.3006010353565216,
        0.003000000026077032,
        -0.0
      ],
      "min": [
        0.0,
        -0.003000000026077032,
        -0.1790640503168106
      ],
      "type": "VEC3"
    },
    {
      "bufferView": 2,
      "byteOffset": 34368,
      "componentType": 5126,
      "count": 46,
      "max": [
        0.7071525454521179,
        1.0,
        0.9999997615814209
      ],
      "min": [
        -0.9996201992034912,
        -1.0,
        -0.9999997615814209
      ],
      "type": "VEC3"
    },
    {
      "bufferView": 1,
      "byteOffset": 11272,
      "componentType": 5126,
      "count": 46,
      "max": [
        1.0,
        1.0
      ],
      "min": [
        0.0,
        0.0
      ],
      "type": "VEC2"
    },
    {
      "bufferView": 0,
      "byteOffset": 26448,
      "componentType": 5125,
      "count": 120,
      "type": "SCALAR"
    }
  ],
  "asset": {
    "extras": {
      "author": "rikugo.studio (https://sketchfab.com/rikugo.studio)",
      "license": "CC-BY-4.0 (http://creativecommons.org/licenses/by/4.0/)",
      "source": "https://sketchfab.com/3d-models/data-chart-infographics-60a66b3b47d54aaa917378c7380ebe60",
      "title": "Data Chart Infographics"
    },
    "generator": "Sketchfab-13.4.0",
    "version": "2.0"
  },
  "bufferViews": [
    {
      "buffer": 0,
      "byteLength": 26928,
      "name": "floatBufferViews",
      "target": 34963
    },
    {
      "buffer": 0,
      "byteLength": 11640,
      "byteOffset": 26928,
      "byteStride": 8,
      "name": "floatBufferViews",
      "target": 34962
    },
    {
      "buffer": 0,
      "byteLength": 34920,
      "byteOffset": 38568,
      "byteStride": 12,
      "name": "floatBufferViews",
      "target": 34962
    }
  ],
  "buffers": [
    {
      "byteLength": 73488,
      "uri": "chart.bin"
    }
  ],
  "materials": [
    {
      "doubleSided": true,
      "name": "Garis",
      "pbrMetallicRoughness": {
        "baseColorFactor": [
          0.12579,
          0.12579,
          0.12579,
          1.0
        ],
        "metallicFactor": 0.0
      }
    },
    {
      "doubleSided": true,
      "name": "Black",
      "pbrMetallicRoughness": {
        "baseColorFactor": [
          0.077103,
          0.077103,
          0.077103,
          1.0
        ],
        "metallicFactor": 0.981132,
        "roughnessFactor": 0.595668
      }
    },
    {
      "doubleSided": true,
      "name": "Kanvas",
      "pbrMetallicRoughness": {
        "metallicFactor": 0.0,
        "roughnessFactor": 0.5
      }
    },
    {
      "doubleSided": true,
      "name": "Graphic",
      "pbrMetallicRoughness": {
        "baseColorFactor": [
          0.046957,
          0.324559,
          0.0186629,
          1.0
        ],
        "metallicFactor": 0.0,
        "roughnessFactor": 0.5
      }
    }
  ],
  "meshes": [
    {
      "name": "Object_0",
      "primitives": [
        {
          "attributes": {
            "NORMAL": 1,
            "POSITION": 0,
            "TEXCOORD_0": 2
          },
          "indices": 3,
          "material": 0,
          "mode": 4
        }
      ]
    },
    {
      "name": "Object_1",
      "primitives": [
        {
          "attributes": {
            "NORMAL": 5,
            "POSITION": 4,
            "TEXCOORD_0": 6
          },
          "indices": 7,
          "material": 1,
          "mode": 4
        }
      ]
    },
    {
      "name": "Object_2",
      "primitives": [
        {
          "attributes": {
            "NORMAL": 9,
            "POSITION": 8,
            "TEXCOORD_0": 10
          },
          "indices": 11,
          "material": 2,
          "mode": 4
        }
      ]
    },
    {
      "name": "Object_3",
      "primitives": [
        {
          "attributes": {
            "NORMAL": 13,
            "POSITION": 12,
            "TEXCOORD_0": 14
          },
          "indices": 15,
          "material": 3,
          "mode": 4
        }
      ]
    }
  ],
  "nodes": [
    {
      "children": [
        1
      ],
      "matrix": [
        5.278467655181885,
        0.0,
        0.0,
        0.0,
        0.0,
        1.172055265104418e-15,
        -5.278467655181885,
        0.0,
        0.0,
        5.278467655181885,
        1.172055265104418e-15,
        0.0,
        0.0,
        0.0,
        0.0,
        1.0
      ],
      "name": "Sketchfab_model"
    },
    {
      "children": [
        2
      ],
      "name": "root"
    },
    {
      "children": [
        3,
        5,
        7,
        9
      ],
      "matrix": [
        1.0,
        0.0,
        0.0,
        0.0,
        0.0,
        2.220446049250313e-16,
        1.0,
        0.0,
        0.0,
        -1.0,
        2.220446049250313e-16,
        0.0,
        0.0,
        0.0,
        0.0,
        1.0
      ],
      "name": "GLTF_SceneRootNode"
    },
    {
      "children": [
        4
      ],
      "matrix": [
        0.009115678258240223,
        0.0,
        0.0,
        0.0,
        0.0,
        0.500008225440979,
        0.0,
        0.0,
        0.0,
        0.0,
        0.021786974743008614,
        0.0,
        -0.054832033812999725,
        0.0,
        0.0,
        1.0
      ],
      "name": "Line_1"
    },
    {
      "mesh": 0,
      "name": "Object_4"
    },
    {
      "children": [
        6
      ],
      "matrix": [
        -0.07117319107055664,
        0.0,
        -0.0,
        -0.0,
        -0.0,
        -0.07117319107055664,
        -0.0,
        -0.0,
        -0.0,
        0.0,
        -0.07117319107055664,
        -0.0,
        0.0,
        -0.0751013532280922,
        0.0,
        1.0
      ],
      "name": "Iron.002_2"
    },
    {
      "mesh": 1,
      "name": "Object_6"
    },
    {
      "children": [
        8
      ],
      "matrix": [
        1.0,
        0.0,
        0.0,
        0.0,
        0.0,
        0.0,
        1.0,
        0.0,
        0.0,
        -0.764879047870636,
        0.0,
        0.0,
        0.0,
        0.0,
        0.0,
        1.0
      ],
      "name": "Plane_3"
    },
    {
      "mesh": 2,
      "name": "Object_8"
    },
    {
      "children": [
        10
      ],
      "matrix": [
        0.3003219664096832,
        0.0,
        0.0,
        0.0,
        0.0,
        0.0,
        0.3003219664096832,
        0.0,
        0.0,
        -0.3003219664096832,
        0.0,
        0.0,
        -0.04403447359800339,
        -0.021890301257371902,
        0.0,
        1.0
      ],
      "name": "Chart.001_4"
    },
    {
      "mesh": 3,
      "name": "Object_10"
    }
  ],
  "scene": 0,
  "scenes": [
    {
      "name": "Sketchfab_Scene",
      "nodes": [
        0
      ]
    }
  ]
}
