<svg xmlns="http://www.w3.org/2000/svg" viewBox="0 0 697.07 432.19"><defs><clipPath id="a"><rect width="595.49" height="311.08" x="67.14" y="68.96" fill="none" transform="rotate(180 364.89 224.5)"/></clipPath><clipPath id="b"><circle cx="316.35" cy="270.45" r="174.16" fill="#34adc3"/></clipPath></defs><g data-name="Layer 1"><path fill="#8e954e" d="M204.25,217.65l3.69-1.16c-13.84-43.72-80.55-113.68-83.38-116.64l-2.79,2.67C122.45,103.24,190.68,174.8,204.25,217.65Z"/><rect width="34.03" height="3.87" x="147.96" y="127.34" fill="#8e954e" transform="rotate(-83.22 164.98 129.276)"/><rect width="49.66" height="3.87" x="116.25" y="152.39" fill="#8e954e" transform="rotate(-8.89 141.043 154.295)"/><rect width="28.22" height="3.87" x="175.04" y="160.18" fill="#8e954e" transform="rotate(-67.37 189.137 162.112)"/><path fill="#9da65d" d="M61.75,165.78s53,41,83-11.47C144.77,154.31,101.57,111,61.75,165.78Z"/><path fill="#8e954e" d="M61.75,165.78l83-11.47S101.57,111,61.75,165.78Z"/><path fill="#8e954e" d="M84.69,162.61,78.5,175.32A72.6,72.6,0,0,0,93.2,180l8.74-19.75Z"/><path fill="#8e954e" d="M106.86,180.93a41.36,41.36,0,0,0,17-4.87L132.31,156l-15.76,2.18Z"/><path fill="#9da65d" d="M85.72,143.52a60.43,60.43,0,0,0-12.14,8.79l11.11,10.3,14.2-2,3-.42Z"/><path fill="#9da65d" d="M100.34,138.54l16.21,19.62L132.31,156l-11-15.61A45.62,45.62,0,0,0,100.34,138.54Z"/><path fill="#9da65d" d="M216.19,93s-52,22.36-25.47,66C190.72,159,240.4,144.78,216.19,93Z"/><path fill="#8e954e" d="M216.19,93l-25.47,66S240.4,144.78,216.19,93Z"/><path fill="#8e954e" d="M209.15,111.2l-6.86-9.77a61.91,61.91,0,0,0-9.45,8.95l11,14.54Z"/><path fill="#8e954e" d="M186.55,120.09a35.12,35.12,0,0,0-3.35,14.55l11.38,14.45,4.83-12.53Z"/><path fill="#9da65d" d="M222.83,119.77a50.57,50.57,0,0,0-1.53-12.56l-12.15,4-4.36,11.29-.93,2.43Z"/><path fill="#9da65d" d="M220.53,132.61l-21.12,3.95-4.83,12.53,16-1.78A38.49,38.49,0,0,0,220.53,132.61Z"/><path fill="#9da65d" d="M174.39,41.52s-52.54,41.59-8.77,83.35C165.62,124.87,218.05,93.32,174.39,41.52Z"/><path fill="#8e954e" d="M174.39,41.52l-8.77,83.35S218.05,93.32,174.39,41.52Z"/><path fill="#8e954e" d="M172,64.55l-10.86-9a72.15,72.15,0,0,0-8,13.14l17.07,13.23Z"/><path fill="#8e954e" d="M148.87,81.69a41.46,41.46,0,0,0,.64,17.66l17.47,13,1.67-15.83Z"/><path fill="#9da65d" d="M190.25,70.13a59.72,59.72,0,0,0-5.62-13.89L172,64.55l-1.5,14.26-.33,3.06Z"/><path fill="#9da65d" d="M191.58,85.52l-22.93,11L167,112.38l17.81-7A45.63,45.63,0,0,0,191.58,85.52Z"/><path fill="#9da65d" d="M72.42,51.19s-.29,67,59.65,58.86C132.07,110.05,140.14,49.39,72.42,51.19Z"/><path fill="#8e954e" d="M72.42,51.19l59.65,58.86S140.14,49.39,72.42,51.19Z"/><path fill="#8e954e" d="M88.9,67.45,75.05,70.28a72.2,72.2,0,0,0,5.26,14.49l21-5.09Z"/><path fill="#8e954e" d="M87.88,96.19a41.37,41.37,0,0,0,14.21,10.52l21.07-5.52L111.83,90Z"/><path fill="#9da65d" d="M104.67,56.64a59.69,59.69,0,0,0-14.36-4.27L88.9,67.45,99.1,77.52l2.19,2.16Z"/><path fill="#9da65d" d="M117.53,65.21,111.83,90l11.33,11.18,5.65-18.28A45.54,45.54,0,0,0,117.53,65.21Z"/><path fill="#618730" d="M473.87,185.94c.55-.07,13.66-1.93,22.41-7.05l-1.95-3.34c-8.08,4.73-20.87,6.54-21,6.56Z"/><rect width="3.87" height="33.57" x="451.06" y="191.01" fill="#618730" transform="rotate(-13.96 452.837 207.735)"/><rect width="3.87" height="15.08" x="463.72" y="215.27" fill="#618730" transform="rotate(-82.65 465.681 222.797)"/><path fill="#618730" d="M440,255.21c35.7-47.11,46-112.57,46.09-113.23l1.59-12.51-3.84-.49-1.58,12.47c-.1.59-10.25,65.11-45.34,111.43Z"/><path fill="#478457" d="M432.76,122.13s-36,56.48,19,81.62C451.74,203.75,491,156.79,432.76,122.13Z"/><path fill="#2b6441" d="M432.76,122.13l19,81.62S491,156.78,432.76,122.13Z"/><path fill="#2b6441" d="M438,144.68l-13.22-5a72.77,72.77,0,0,0-3.3,15L442,161.64Z"/><path fill="#2b6441" d="M421.78,168.43a41.59,41.59,0,0,0,6.4,16.48l20.76,6.59-3.6-15.5Z"/><path fill="#478457" d="M457.11,144a60.23,60.23,0,0,0-9.85-11.29l-9.26,12,3.25,14,.7,3Z"/><path fill="#478457" d="M463.4,158.08,445.34,176l3.6,15.5,14.54-12.43A45.51,45.51,0,0,0,463.4,158.08Z"/><path fill="#478457" d="M544,231.32s-41.48-52.62-83.33-8.94C460.64,222.38,492.08,274.88,544,231.32Z"/><path fill="#2b6441" d="M544,231.32l-83.33-8.94S492.08,274.88,544,231.32Z"/><path fill="#2b6441" d="M520.94,228.85,530,218a73.26,73.26,0,0,0-13.13-8.07L503.63,227Z"/><path fill="#2b6441" d="M503.85,205.72a41.44,41.44,0,0,0-17.66.61l-13.06,17.44,15.82,1.7Z"/><path fill="#478457" d="M515.33,247.12a60,60,0,0,0,13.9-5.58l-8.29-12.69-14.25-1.53-3.06-.33Z"/><path fill="#478457" d="M499.93,248.43l-11-23-15.82-1.7,6.95,17.82A45.71,45.71,0,0,0,499.93,248.43Z"/><path fill="#478457" d="M561.6,151.13s-61.13-27.45-78,30.64C483.59,181.77,535.77,213.76,561.6,151.13Z"/><path fill="#2b6441" d="M561.6,151.13l-78,30.64S535.77,213.76,561.6,151.13Z"/><path fill="#2b6441" d="M540.05,159.59l3-13.81a72.75,72.75,0,0,0-15.37-1.07L523.84,166Z"/><path fill="#2b6441" d="M514.19,147a41.39,41.39,0,0,0-15.38,8.72l-3.5,21.5,14.81-5.82Z"/><path fill="#478457" d="M543.53,178.39A60,60,0,0,0,553.26,167l-13.21-7.41-13.35,5.24L523.84,166Z"/><path fill="#478457" d="M530.48,186.67,510.12,171.4l-14.81,5.82,14.41,12.58A45.63,45.63,0,0,0,530.48,186.67Z"/><path fill="#478457" d="M494.42,58.51s-53.25,40.66-10.22,83.18C484.2,141.69,537.18,111.06,494.42,58.51Z"/><path fill="#2b6441" d="M494.42,58.51,484.2,141.69S537.18,111.06,494.42,58.51Z"/><path fill="#2b6441" d="M491.6,81.49l-10.7-9.24a72.54,72.54,0,0,0-8.27,13l16.84,13.52Z"/><path fill="#2b6441" d="M468.2,98.22a41.52,41.52,0,0,0,.34,17.68l17.24,13.32,1.94-15.79Z"/><path fill="#478457" d="M509.78,87.39a59.88,59.88,0,0,0-5.37-14L491.6,81.49l-1.75,14.23-.38,3Z"/><path fill="#478457" d="M510.84,102.8l-23.12,10.63-1.94,15.79,17.92-6.67A45.53,45.53,0,0,0,510.84,102.8Z"/><rect width="90.34" height="212.68" x="104.1" y="168.98" fill="#416a93" transform="rotate(180 149.265 275.325)"/><rect width="45.17" height="212.68" x="104.1" y="168.98" fill="#38547c" transform="rotate(180 126.68 275.325)"/><rect width="61.22" height="212.68" x="118.66" y="161.25" fill="#416a93" transform="rotate(180 149.265 267.585)"/><rect width="30.61" height="212.68" x="118.66" y="161.25" fill="#38547c" transform="rotate(180 133.965 267.585)"/><rect width="16.28" height="212.68" x="125.82" y="155.27" fill="#38547c" transform="rotate(180 133.965 261.615)"/><rect width="9.09" height="9.09" x="109.16" y="178.91" fill="#2a4067" transform="rotate(180 113.705 183.455)"/><rect width="19.27" height="9.09" x="123.22" y="178.91" fill="#2a4067" transform="rotate(180 132.855 183.455)"/><rect width="9.09" height="9.09" x="109.16" y="195.33" fill="#2a4067" transform="rotate(180 113.705 199.875)"/><rect width="19.27" height="9.09" x="123.22" y="195.33" fill="#2a4067" transform="rotate(180 132.855 199.875)"/><rect width="9.09" height="9.09" x="109.16" y="211.74" fill="#2a4067" transform="rotate(180 113.705 216.29)"/><rect width="19.27" height="9.09" x="123.22" y="211.74" fill="#2a4067" transform="rotate(180 132.855 216.29)"/><rect width="9.09" height="9.09" x="109.16" y="228.17" fill="#2a4067" transform="rotate(180 113.705 232.715)"/><rect width="19.27" height="9.09" x="123.22" y="228.17" fill="#2a4067" transform="rotate(180 132.855 232.715)"/><rect width="9.09" height="9.09" x="109.16" y="244.59" fill="#2a4067" transform="rotate(180 113.705 249.135)"/><rect width="19.27" height="9.09" x="123.22" y="244.59" fill="#2a4067" transform="rotate(180 132.855 249.135)"/><rect width="9.09" height="9.09" x="109.16" y="261.01" fill="#2a4067" transform="rotate(180 113.705 265.56)"/><rect width="19.27" height="9.09" x="123.22" y="261.01" fill="#2a4067" transform="rotate(180 132.855 265.56)"/><rect width="9.09" height="9.09" x="109.16" y="277.43" fill="#2a4067" transform="rotate(180 113.705 281.975)"/><rect width="19.27" height="9.09" x="123.22" y="277.43" fill="#2a4067" transform="rotate(180 132.855 281.975)"/><rect width="9.09" height="9.09" x="109.16" y="293.85" fill="#2a4067" transform="rotate(180 113.705 298.395)"/><rect width="19.27" height="9.09" x="123.22" y="293.85" fill="#2a4067" transform="rotate(180 132.855 298.395)"/><rect width="9.09" height="9.09" x="155.13" y="178.91" fill="#2a4067" transform="rotate(180 159.68 183.455)"/><rect width="19.27" height="9.09" x="169.2" y="178.91" fill="#2a4067" transform="rotate(180 178.83 183.455)"/><rect width="9.09" height="9.09" x="155.13" y="195.33" fill="#2a4067" transform="rotate(180 159.68 199.875)"/><rect width="19.27" height="9.09" x="169.2" y="195.33" fill="#2a4067" transform="rotate(180 178.83 199.875)"/><rect width="9.09" height="9.09" x="155.13" y="211.74" fill="#2a4067" transform="rotate(180 159.68 216.29)"/><rect width="19.27" height="9.09" x="169.2" y="211.74" fill="#2a4067" transform="rotate(180 178.83 216.29)"/><rect width="9.09" height="9.09" x="155.13" y="228.17" fill="#2a4067" transform="rotate(180 159.68 232.715)"/><rect width="19.27" height="9.09" x="169.2" y="228.17" fill="#2a4067" transform="rotate(180 178.83 232.715)"/><rect width="9.09" height="9.09" x="155.13" y="244.59" fill="#2a4067" transform="rotate(180 159.68 249.135)"/><rect width="19.27" height="9.09" x="169.2" y="244.59" fill="#2a4067" transform="rotate(180 178.83 249.135)"/><rect width="9.09" height="9.09" x="155.13" y="261.01" fill="#2a4067" transform="rotate(180 159.68 265.56)"/><rect width="19.27" height="9.09" x="169.2" y="261.01" fill="#2a4067" transform="rotate(180 178.83 265.56)"/><rect width="9.09" height="9.09" x="155.13" y="277.43" fill="#2a4067" transform="rotate(180 159.68 281.975)"/><rect width="19.27" height="9.09" x="169.2" y="277.43" fill="#2a4067" transform="rotate(180 178.83 281.975)"/><rect width="9.09" height="9.09" x="155.13" y="293.85" fill="#2a4067" transform="rotate(180 159.68 298.395)"/><rect width="19.27" height="9.09" x="169.2" y="293.85" fill="#2a4067" transform="rotate(180 178.83 298.395)"/><rect width="59.6" height="147.03" x="44.49" y="234.64" fill="#416a93" transform="rotate(180 74.295 308.15)"/><rect width="29.8" height="147.03" x="44.49" y="234.64" fill="#38547c" transform="rotate(180 59.395 308.15)"/><rect width="5.13" height="9.75" x="95.69" y="242.36" fill="#2a4067" transform="rotate(180 98.255 247.235)"/><rect width="5.13" height="9.75" x="76.66" y="242.36" fill="#2a4067" transform="rotate(180 79.225 247.235)"/><rect width="5.13" height="9.75" x="86.18" y="242.36" fill="#2a4067" transform="rotate(180 88.74 247.235)"/><rect width="5.13" height="9.75" x="67.14" y="242.36" fill="#2a4067" transform="rotate(180 69.71 247.235)"/><rect width="5.13" height="9.75" x="48.11" y="242.36" fill="#2a4067" transform="rotate(180 50.68 247.235)"/><rect width="5.13" height="9.75" x="57.63" y="242.36" fill="#2a4067" transform="rotate(180 60.195 247.235)"/><rect width="5.13" height="9.75" x="95.69" y="256.74" fill="#2a4067" transform="rotate(180 98.255 261.615)"/><rect width="5.13" height="9.75" x="76.66" y="256.74" fill="#2a4067" transform="rotate(180 79.225 261.615)"/><rect width="5.13" height="9.75" x="86.18" y="256.74" fill="#2a4067" transform="rotate(180 88.74 261.615)"/><rect width="5.13" height="9.75" x="67.14" y="256.74" fill="#2a4067" transform="rotate(180 69.71 261.615)"/><rect width="5.13" height="9.75" x="48.11" y="256.74" fill="#2a4067" transform="rotate(180 50.68 261.615)"/><rect width="5.13" height="9.75" x="57.63" y="256.74" fill="#2a4067" transform="rotate(180 60.195 261.615)"/><rect width="5.13" height="9.75" x="95.69" y="270.89" fill="#2a4067" transform="rotate(180 98.255 275.76)"/><rect width="5.13" height="9.75" x="76.66" y="270.89" fill="#2a4067" transform="rotate(180 79.225 275.76)"/><rect width="5.13" height="9.75" x="86.18" y="270.89" fill="#2a4067" transform="rotate(180 88.74 275.76)"/><rect width="5.13" height="9.75" x="67.14" y="270.89" fill="#2a4067" transform="rotate(180 69.71 275.76)"/><rect width="5.13" height="9.75" x="48.11" y="270.89" fill="#2a4067" transform="rotate(180 50.68 275.76)"/><rect width="5.13" height="9.75" x="57.63" y="270.89" fill="#2a4067" transform="rotate(180 60.195 275.76)"/><rect width="5.13" height="9.75" x="95.69" y="285.27" fill="#2a4067" transform="rotate(180 98.255 290.145)"/><rect width="5.13" height="9.75" x="76.66" y="285.27" fill="#2a4067" transform="rotate(180 79.225 290.145)"/><rect width="5.13" height="9.75" x="86.18" y="285.27" fill="#2a4067" transform="rotate(180 88.74 290.145)"/><rect width="5.13" height="9.75" x="67.14" y="285.27" fill="#2a4067" transform="rotate(180 69.71 290.145)"/><rect width="5.13" height="9.75" x="48.11" y="285.27" fill="#2a4067" transform="rotate(180 50.68 290.145)"/><rect width="5.13" height="9.75" x="57.63" y="285.27" fill="#2a4067" transform="rotate(180 60.195 290.145)"/><rect width="5.13" height="9.75" x="95.69" y="299.78" fill="#2a4067" transform="rotate(180 98.255 304.65)"/><rect width="5.13" height="9.75" x="76.66" y="299.78" fill="#2a4067" transform="rotate(180 79.225 304.65)"/><rect width="5.13" height="9.75" x="86.18" y="299.78" fill="#2a4067" transform="rotate(180 88.74 304.65)"/><rect width="5.13" height="9.75" x="67.14" y="299.78" fill="#2a4067" transform="rotate(180 69.71 304.65)"/><rect width="5.13" height="9.75" x="48.11" y="299.78" fill="#2a4067" transform="rotate(180 50.68 304.65)"/><rect width="5.13" height="9.75" x="57.63" y="299.78" fill="#2a4067" transform="rotate(180 60.195 304.65)"/><rect width="5.13" height="9.75" x="95.69" y="314.16" fill="#2a4067" transform="rotate(180 98.255 319.035)"/><rect width="5.13" height="9.75" x="76.66" y="314.16" fill="#2a4067" transform="rotate(180 79.225 319.035)"/><rect width="5.13" height="9.75" x="86.18" y="314.16" fill="#2a4067" transform="rotate(180 88.74 319.035)"/><rect width="5.13" height="9.75" x="67.14" y="314.16" fill="#2a4067" transform="rotate(180 69.71 319.035)"/><rect width="5.13" height="9.75" x="48.11" y="314.16" fill="#2a4067" transform="rotate(180 50.68 319.035)"/><rect width="5.13" height="9.75" x="57.63" y="314.16" fill="#2a4067" transform="rotate(180 60.195 319.035)"/><rect width="5.13" height="9.75" x="95.69" y="328.31" fill="#2a4067" transform="rotate(180 98.255 333.18)"/><rect width="5.13" height="9.75" x="76.66" y="328.31" fill="#2a4067" transform="rotate(180 79.225 333.18)"/><rect width="5.13" height="9.75" x="86.18" y="328.31" fill="#2a4067" transform="rotate(180 88.74 333.18)"/><rect width="5.13" height="9.75" x="67.14" y="328.31" fill="#2a4067" transform="rotate(180 69.71 333.18)"/><rect width="5.13" height="9.75" x="48.11" y="328.31" fill="#2a4067" transform="rotate(180 50.68 333.18)"/><rect width="5.13" height="9.75" x="57.63" y="328.31" fill="#2a4067" transform="rotate(180 60.195 333.18)"/><rect width="5.13" height="9.75" x="95.69" y="342.69" fill="#2a4067" transform="rotate(180 98.255 347.56)"/><rect width="5.13" height="9.75" x="76.66" y="342.69" fill="#2a4067" transform="rotate(180 79.225 347.56)"/><rect width="5.13" height="9.75" x="86.18" y="342.69" fill="#2a4067" transform="rotate(180 88.74 347.56)"/><rect width="5.13" height="9.75" x="67.14" y="342.69" fill="#2a4067" transform="rotate(180 69.71 347.56)"/><rect width="5.13" height="9.75" x="48.11" y="342.69" fill="#2a4067" transform="rotate(180 50.68 347.56)"/><rect width="5.13" height="9.75" x="57.63" y="342.69" fill="#2a4067" transform="rotate(180 60.195 347.56)"/><rect width="68.77" height="19.79" x="39.63" y="360.25" fill="#2a4067" transform="rotate(180 74.015 370.15)"/><g clip-path="url(#a)"><path fill="#118cbd" d="M68.77,395.71s94.18-28.95,215.81,0,265.17,42.74,331.55-38.31c78.8-96.22,42.92-210.94,0-250.48C569.28,63.78,495.57,84.48,495.57,84.48s50.66,9.16,53.64,53.94S530.63,239.61,379.72,241.28C223.09,243,79,347.74,68.77,395.71Z"/><path fill="#1984ae" d="M283.45,295.19C364.86,271.55,471.91,301.4,550,248.9s34.56-135.36,34.56-135.36,11.65-6.08,24.31-12.64a94.2,94.2,0,0,1,7.29,6c42.93,39.54,78.81,154.26,0,250.48-66.38,81.05-209.93,67.24-331.55,38.31s-215.81,0-215.81,0S202.05,318.84,283.45,295.19Z"/><path fill="#1974a0" d="M635.45,165.79,618,141.85s11.36,1.25,25.15,2.83c26.31,53.24,33.8,138.46-27,212.7-66.38,81.05-209.93,67.24-331.55,38.31s-215.81,0-215.81,0c197.83-102.38,387-6.6,487.89-69.43C638.23,275.49,635.45,165.79,635.45,165.79Z"/><path fill="#fff" d="M661.38,207.6s-8.83-31-25.93-41.81-20.07,1.66-34.2-8.29-5.15-11.7-21.56-21.57c-13.8-8.29-23.64,3.7-44.6-3.31-11.16-3.73-13.39-24.47-27.51-24.47s-25.28,9.32-37.17-10.47c0,0,55.75-43.85,129.35-6.54C656.09,119.71,661.38,207.6,661.38,207.6Z"/><path fill="#00b2ef" d="M284.44,372.28s54.09-14.9,123.94,0,152.28,22,190.41-19.72C644,303,623.44,244,598.78,223.62c-26.9-22.2-69.23-11.55-69.23-11.55s29.1,4.72,30.8,27.77-10.67,52.09-97.33,53C373.07,293.68,290.29,347.59,284.44,372.28Z"/><path fill="#0097cd" d="M407.73,320.54c46.75-12.17,108.23,3.2,153-23.83S580.63,227,580.63,227s6.69-3.13,14-6.5a50.68,50.68,0,0,1,4.19,3.09c24.66,20.35,45.26,79.4,0,128.93-38.13,41.72-120.57,34.61-190.41,19.72s-123.94,0-123.94,0S361,332.71,407.73,320.54Z"/><path fill="#007eaf" d="M609.88,253.93l-10-12.33,14.44,1.46c15.11,27.41,19.41,71.28-15.5,109.49-38.13,41.72-120.57,34.61-190.41,19.72s-123.94,0-123.94,0c113.61-52.7,222.24-3.4,280.19-35.74C611.48,310.4,609.88,253.93,609.88,253.93Z"/><path fill="#fff" d="M624.77,275.45s-5.07-16-14.89-21.52-11.53.85-19.64-4.27-3-6-12.38-11.1c-7.93-4.27-13.58,1.9-25.62-1.71-6.4-1.92-7.68-12.59-15.79-12.59s-14.52,4.79-21.35-5.39c0,0,32-22.57,74.28-3.37C621.74,230.21,624.77,275.45,624.77,275.45Z"/><circle cx="316.35" cy="270.45" r="174.16" fill="#34adc3"/><g clip-path="url(#b)"><path fill="#ecf2b3" d="M.72,184.58v1.54c1.54,1.49,2.38,3.58,3.84,5.14a6.71,6.71,0,0,0,6.77-1A10.43,10.43,0,0,1,16,188.41a4.77,4.77,0,0,0,.94-.45c.14.14.28.27.41.41a1.1,1.1,0,0,0,.66.39l.09.33c-.12,3.18,1.12,5.36,4,6.3,1.73.59,3.34,1.52,5.09,2.07a4.15,4.15,0,0,0,1,.14l.38-.1c1.22.94,2.75,1.37,3.72,2.78s2.1.22,3.14-.21c.24-.29.57-.48.82-.75a25.63,25.63,0,0,0,2.39,1.91c1.27,1.29,3.51-.49,4.52,1.65.15.29.31.57.47.86a2.7,2.7,0,0,1,.06,3.16,1,1,0,0,0,.2.92c1,2,2,4.09,3.05,6.13a29.43,29.43,0,0,1,4.82,5.49,2.52,2.52,0,0,0,2.2,2.36c1.28,1.13,2.39,1.25,2.81-.79.92-4.58,2.23-9.13,1.51-13.92-.36-.67-.7-1.38-1.51-.77-.09-.81.18-1.83-.66-2.16a4.85,4.85,0,0,0-.09-.55,3.46,3.46,0,0,0-.48-1,4,4,0,0,0-1.19-1c-1.21-.62-2.37-1.27-2.31-3.29,1.15-.48,2.2.42,3.29.49a1,1,0,0,0,.66-.18,3.93,3.93,0,0,0,.36,2.11,5,5,0,0,0,2.73,3.08c4.19.68,8.17-.55,12.19-1.51l2.81-.72c0,1.25,1,1.34,1.78,1.6,3.8.18,6.15,3.74,9.67,4.76a1.82,1.82,0,0,0-.21,1.3c1.26,2.36.59,3.57-1.91,3.71a8.32,8.32,0,0,0-3.15.56,4.36,4.36,0,0,0-2.51,4.82,25.16,25.16,0,0,0,1.51,5.53,56.9,56.9,0,0,0,3.63,6.48c1.12,1.9,2.59,3.49,3.86,5.25a4.53,4.53,0,0,0,1.62,1.1,1,1,0,0,0,.23.06c-.34,1.1.61,1.63,1.21,2.32a6.22,6.22,0,0,0,4.38,1.14,3.6,3.6,0,0,1,3.63,1.87c.36.56.75,1.11,1.15,1.65,1.12,1.31,1.75,2.72.76,4.46a10.16,10.16,0,0,0-.46,1,10.56,10.56,0,0,0-.79,3.47c.61,4.55,1.72,5.31,6.27,4.28a3.34,3.34,0,0,0,.4-.55l.33.21c1.21-.54,1.11-1.74,1.26-2.82a4.25,4.25,0,0,1,2-3.74c.13,2.85,3,2.1,4.37,3.27,1.92,2.75-1.65,4-1.47,6.29a2.53,2.53,0,0,0-.55.09c-.34,1.2-1.08,2.31-.76,3.67,0,.56,0,1.12,0,1.67L110,265c.77,1.62,1.54,3.23,2.3,4.85,1.29,2,0,5.58,3.33,6.35a.31.31,0,0,0,0,.21q.08.24.15.24a13.84,13.84,0,0,0,6.79,2.47,3.44,3.44,0,0,1,.58.35,19.08,19.08,0,0,0,1.8.92,7.24,7.24,0,0,1,1.44.66l.55.37a5.71,5.71,0,0,1,.88.77,3.13,3.13,0,0,0,.58.36l.57,1,2.08,0c.36-.37,1-.57.85-1.24.64.34,1.49-.19,2.07.47a5.53,5.53,0,0,1,0,4.67l-.75.79c-1.58,3.65-4.23,7.07-2.17,11.51l2.88,2.44a4.49,4.49,0,0,1,.75.76,3.92,3.92,0,0,0,4.54,1.94c1.08-.33,1.26-1.2,1.26-2.18.19-.34.36-.71.52-1.07.48-.73,1.19-1.38.93-2.4a1.61,1.61,0,0,0,.7.26c.72,0,1.33-.56,2.07-.5.58.37.56,1,.58,1.59a7.37,7.37,0,0,1-1.11,3.08c-1.66,2.88-4.62,4.85-5.12,8.53-.1,1.57-.24,3.15.66,4.53-1.27,1.78-1.89,3.93-2.83,5.89-1,2.18-.56,5.64-4.19,5.57a14.47,14.47,0,0,0-6.08,1.47c-1.06.49-2.23,1-2,2.61-.28.91-.55,1.83-.82,2.74l3.74-.37,6.52.08,2.13-.11c3.76-1.43,6-4.8,8.61-7.73.82-1.33,1.85-2.45,2.77-3.69,1.69-3.88,4.51-7,6-11.06l.64-.69c2.18-1.29,1.35-2.59,0-3.89a22.42,22.42,0,0,0-3.21,1.51,9.89,9.89,0,0,1-3.36,1.33c-.45-3.1,1-5.95.82-8.94a1,1,0,0,0,.18-.36c.2-.42.41-.84.62-1.25-.47-2.29,2-3.83,1.34-6.18a1.38,1.38,0,0,0,0-1.65c1.78-1.95,4.89-1.37,6.41-3.82.35-.95.65-1.92,1.06-2.83,2.29-5,5.55-5.09,9.09-.34a3.12,3.12,0,0,0,2.57,1.65,4.24,4.24,0,0,0,1.61-.1c.1,1.2,1.54,1,2.15,1.62.7,1.91,2.32,2.82,3.72,4,.17-.59.4-.63.7-.1,0,2.57,0,5.14,0,7.7a2.5,2.5,0,0,1,.45.59c.72,2.16,1.74,4.08,4.16,4.06,2.72,0,3.17-2.62,4.12-4.61,0-.49-.05-1-.07-1.49l1.37-.81q1.44-4.65,2.86-9.3c-.45-2.7.33-4.39,2-5.36a5.58,5.58,0,0,0,2.33-.11c1.55-.72,2.7-1.72,2.21-3.81-.56-2.79,1.26-3.38,2.82-4.21a6.48,6.48,0,0,1,1.81-.13c2.28-.22,4.66,1.8,6.91-.39,1.86,1.7,1.18,4.15,1.44,6.32a4.91,4.91,0,0,0,.3,1,17.29,17.29,0,0,0,6,6.72l3.73,3c1.31-.29,2.34.72,3.55.89a16.79,16.79,0,0,0,5.79,3l1.44.77h.77a6.18,6.18,0,0,1,.91.41,6.46,6.46,0,0,0,.94.31,2.64,2.64,0,0,0,.5.15c.46.28.88.57.72,1.23-.26,1.1-1.3.95-2.16,1a2.25,2.25,0,0,0-.19-.45,6.68,6.68,0,0,0-3.45-1.87c-1.54-.2-3.13-.62-4.39.78a1.6,1.6,0,0,0-.25-.18c-1.2.24-1.23,1.24-1.29,2.24a49,49,0,0,0,4.35,11.89c.74,1,1.13,2.55,2.77,2.34,5.08,2.09,7.71,7.22,11.58,10.8.49,1.29,1,2.57,1.45,3.86q0,3.09,0,6.19a31.54,31.54,0,0,0-2.51,10.23,5,5,0,0,0,2.38,5.16c.83.49,1.7.93,2.55,1.39,5.23,2.81,5.73,3.75,4.52,9.86-.3,1.55-.57,2.74,1,3.54,2.17,1.47,3.68,3.16,3.87,6.29a9,9,0,0,0,2.61,5.3l3.6,3.1,2.15,1.56,2.87,2.38c2.29,1.37,4.81.43,7.2.87,2.74,0,5.13-.57,5.77-4H280q3.33-10.87,6.64-21.74c3-3.65,4.15-7.67,2.14-12.32-1.65-3.65-2.91-7.38-2.11-11.54,1.51-1.42,2.81-2.94,2.14-5.48,2.14-1.8,4-3.79,4.24-6.95l.33,0h.33l0-3.88a6.59,6.59,0,0,1,0-4.53l2.18-1.51c.89.36,1.53.3,1.52-.9a5,5,0,0,0,2.79-.8c.45-.56,1.5-.14,1.62-1.38a3.55,3.55,0,0,0,3.8.77,2.37,2.37,0,0,0,.11.58,2,2,0,0,0,.92.78c3.6.8,7.22.37,10.83.3l5.8-.26c.28-.46.55-.92.83-1.37a6.71,6.71,0,0,0,3.75-3.27l-.36,0a2,2,0,0,0,.15-.7l2.73-3.26c.4-.95.81-1.89,1.22-2.83a2.76,2.76,0,0,0,.47-.2c.43-.24.93-.36,1.22-.83a1.58,1.58,0,0,1,.19-.65c.27-.5,1-.77.62-1.73,1.67.4.63-1.75,1.35-2.24.92-2.61,0-5.45.88-8.06-.58-3-.38-6-.79-9a8.72,8.72,0,0,0-.89-2.27c-2.66-3.69-5-7.66-8.92-10.16-2-1.3-1.89-3.89-2.53-6l-2.79-4.77c-.62-1.44.25-1.82,1.28-2.07,2.14-.52,2.4-2.15,2.17-4.15-.37-3.3-.76-6.59-1.22-9.88-.81-2.71-2.87-3.11-5.11-3.18-.75-.42-1.19.07-1.76.63-1.83-1.08-3.7-.46-5.57-.08.27-1.71.52-3.43,1.85-4.67a3.22,3.22,0,0,0,.57-1.12,1.8,1.8,0,0,1,.32-.06c1.46-.57,2.67-1.37,2.82-3.24-.36-2-1.82-2.2-3.41-2.32a1.6,1.6,0,0,0,.12-.49,1.87,1.87,0,0,0,1.7.31,1.63,1.63,0,0,0,.45-.25c-.06,1.18.85,1,1.58,1.16a2.2,2.2,0,0,0,.92-.35l.28-.43c.61-2.08-.62-3.9-.7-5.88l-.35-.71c-.1-.6-.22-1.19-.3-1.79a4.1,4.1,0,0,0-.41-1c-.09-.12-.19-.21-.28-.31a5.8,5.8,0,0,1,.09-1.24c1.54-.65,2-2.19,2.56-3.62a2.74,2.74,0,0,0-.3-2.27c-.23-.79-.45-1.58-.67-2.36-.61-1.08-.71-2.54-1.92-3.16s-2.85-1.52-3.37.88c-.31,1.43-1.48,1.53-2.23,2.27a10.1,10.1,0,0,1-2.78,5.9l-.73.24c-1.43-2.46-2.9-1.83-4.38-.06a2.81,2.81,0,0,0-1.36,3.2l-.79,1.63a13.9,13.9,0,0,0-2.61-.95c-1.76-.28-2.85-1-3.12-2.38a7.75,7.75,0,0,1,.78-1.64c1.2-1.45.22-3.57,1.36-5,3.51-2.55,4.7-5.58,3.74-9.58a2.15,2.15,0,0,1-.18.24.94.94,0,0,0,.18-.25c0-.43-.05-.87-.07-1.31l-2.95-3.21c-2.87-1.8-6.61-1.95-8.69-5.25a16.9,16.9,0,0,1-2.9-3.16c-3.06-2.42-4-7-7.76-8.73l-.81-.59-1.41-1.52-.87-.65a.76.76,0,0,1-.58-.18c-1.32-1.26-2.87,0-4.27-.43,0-.11,0-.21-.05-.32-2.13-1.81-5.06-.66-7.25-2.28-2.42,0-3.75,2.24-5.73,3.13-2.16.4-3.95,1.67-5.78,2.86a12.4,12.4,0,0,0-5,1.63,1.08,1.08,0,0,0-.21-.22,2.12,2.12,0,0,0-2.68,1.12c-.88,1.15-2.46,1.61-2.83,3.28-.16.76-.4,1.66-1.26,1.54-1.06-.14-1-1.19-1.07-2.09-.33-5-.56-5.12-4.76-2.84l-1.59.85-.27,1.45c-3.29-1.25-6.33-3.25-9.85-3.84-4.6,1.2-8.85-.32-13.11-1.86a27,27,0,0,0-7.18.46c-.14-.06-.29,0-.45.15.57-2.83-.48-5.14-2.29-7.2-2.32-2.09-4.56-4.5-8-2.35l-1.38-.11c-.21.06-.44.11-.66.15-1.57-.58-2.21.46-2.87,1.46a7.13,7.13,0,0,0-1,.36,1.76,1.76,0,0,0-.83.56l-.44-.09-1.45-.73c-1.69-.63-3-2.12-4.84-2.4a.51.51,0,0,0-.27-.62l-1.4-.77c-1.66-1.27-3.76-.86-5.55-1.67,0-3.17-2.56-3.51-4.46-4.58-1,0-1.94-.05-3,0-1.55-1.19-3.28-.6-4.95-.6l-1.47-.35c-2.48-.19-5.2,1.27-7.31-1.28-1.36-1.06-3.23.08-4.52-1.24l-.78-.19-.55-.76a2.22,2.22,0,0,0-2.81,1.27h-.54c-1.26-3.18-2.47-1.33-3.69,0-3,1.73-6.34-1.05-9.33.82l-2.79,3.22c0,.7,0,1.41,0,2.11.38,1.07.59,2.3,1.58,2.86-2,.35-4-1.63-6-.61a.73.73,0,0,1-.67.08.75.75,0,0,0-1,0c-1,1.08-2,2.15-1.44,3.89l-2.7.9.07-.32c-2.16.47-4.51-.46-6.54,1l-2.9.23-.22.11.22-.11c-1.43-.26-2.82-.39-3.57,1.39l-1.5,1.44-1.38.84-1.38-.83c-1-1.71-1.94-3.49-3.78-.89l-1.36,0-.7.29c-2.15-.51-4.73,1.15-6.47-1.47-.17-.33-.34-.65-.5-1l-.21-2.31c-4.71-1-9,2.05-13.63,1.67l-1.64,1.43a2.76,2.76,0,0,0-2,1.6c-2.42,1.47-4.86.95-7.31.12-3.24.9-7.25-.44-9.39,3.7a3.35,3.35,0,0,1-.55.11,24.92,24.92,0,0,0-8,.84c-1.43.53-3.16-2.22-4.4.46-.53.19-.84.13-1-.06a6.7,6.7,0,0,0-.55-1.8,1.93,1.93,0,0,0-.83-.82,9.22,9.22,0,0,0-3.41-.49c-1.55-.22-3,.47-4.47.67-3.84-.46-7,1.4-9.85,3.73a50.74,50.74,0,0,1-10.82,6.73C3.49,183,1.77,183.08.72,184.58Zm253.47,53.28a9.26,9.26,0,0,0-1.58-.12c-2.75-.5-5.25,1.48-8.38,1.09,1-2.3,2.73-2,4.26-2.19,1.88-.23,3.76,1,5.63,0a.8.8,0,0,0,.1-.77,1.78,1.78,0,0,0,.41-.45c.09-.17.18-.35.26-.53l.67-.06.36-.33a1.7,1.7,0,0,0,.13-1.16,5.48,5.48,0,0,1,3.14,3.52,9.67,9.67,0,0,0,.48.9c.58.84,1.15,1.69,2.3,1.25a.7.7,0,0,0,.06.37l-.18.07a1.2,1.2,0,0,0-1.18.81c-1-1.25-2.7-.68-3.9-1.46A8.66,8.66,0,0,0,254.19,237.86Zm-28.94,10.29c-.28.17-.55.36-.81.54-.68.35-1.36.59-1.59-.52a1.64,1.64,0,0,1,1-2.09c1-.36,2.14-.18,3-1a1.63,1.63,0,0,0,.52,1.22,3.71,3.71,0,0,0-.68,1.27A2.76,2.76,0,0,0,225.25,248.15Zm.27-6.27a1.65,1.65,0,0,1-1.9.42,1,1,0,0,0,.27-.51l.07-2.12c0-.08,0-.16.07-.24,1.31-2.06,4.46-3.7,1.3-6.79a4,4,0,0,0-1.72-1.23,3.46,3.46,0,0,1,1.64.15,24.51,24.51,0,0,1,3,1.33,3.48,3.48,0,0,0,.47,0c1.55,3.1-1.18,4.91-1.92,7.34-.08.27-.17.54-.25.82Zm64.18,8.46h-.25A.35.35,0,0,1,289.7,250.34Zm-12.72-57a3.52,3.52,0,0,0-.65,1.78c0,1.77-1.29,3.22-1.21,5,0,.16.08.33.13.49-1,1.2-.88,1.52.39,2.69a7.28,7.28,0,0,1,2.42,4.09,6.14,6.14,0,0,0,1.64,2.3,2.18,2.18,0,0,0,2.54.57c.71,2.1,2.69.17,3.72,1.29.38-.43.77-.85,1.16-1.27.51.68,1.09,1.1,1.83.83a8.9,8.9,0,0,1,0,1.93l-3.09,0c-.82-.88-1.94-.34-2.87-.72-1.29-1-2.59-1.95-4.3-.75a1,1,0,0,0-.38-1.06,10.11,10.11,0,0,1-4-2.8,1.52,1.52,0,0,1-.65-1.47c-1.14-2.23-4.56-2.68-4.16-6.12,1.82-.14,2.61-1.22,2.52-3.09l.22,0a3.33,3.33,0,0,0,.81-4.15,13.64,13.64,0,0,1-.7-1.24c.28-.75,1.12-.28,1.83-.08l.49.39A8.61,8.61,0,0,0,277,193.36Zm22.28,46.27a3.42,3.42,0,0,1,1.23.49c.44.57.88,1.15,1.33,1.72.8,1.87,1.54,3.81,3.77,4.12l.16.18a2.4,2.4,0,0,0,.56,2.17,9,9,0,0,0,2.06,2,3,3,0,0,0-1.09.29,6.27,6.27,0,0,1-.63-.42,8.37,8.37,0,0,0-4.33-1.62c-3.09-.09-6.17-.11-9.25,0a7.41,7.41,0,0,0-2.41.19l-1.38,0c-1.74,0-2.52.58-1.29,2.41,0,.24,0,.49.06.74a1.56,1.56,0,0,1,.67,1.08c0,.47,0,.94,0,1.41l.06.29c-.25.91-.51,1.82-.76,2.74a2.18,2.18,0,0,0-2.17,1.24,1.16,1.16,0,0,0-1.42.15,25.76,25.76,0,0,0-3.53,1.64c-3.15,2.06-5.27,1.19-6.58-2.4-.22-.21-.47-.38-.73-.67a2.55,2.55,0,0,1-.39,0,4.64,4.64,0,0,0-2.66.13,1.73,1.73,0,0,0-.58.53c-1.93-1.24-3.06.29-4.31,1.53a1.77,1.77,0,0,0,0-.2,1.73,1.73,0,0,0-2.1.18c-3.09,1.72-6.19.44-9.29,0-1.39-.88-1.93-2.4-2.75-3.79-1-1.74-.93-2.51-.28-2.85a4.53,4.53,0,0,1,1.93.11,4.37,4.37,0,0,0,1,.05l.63,0c3.82,1,6.19.63,7.68-1.28a6.52,6.52,0,0,0,1.68-1.74c.93-1.75,2.19-3.4,1.73-5.61l1.84,2.67c-1.12,4.46-.8,4.87,3.12,3.83a5,5,0,0,0,2.87-1.41c-.31-2.25,1.16-3.72,2.08-5.43l.8.45a2.28,2.28,0,0,0,0,.26c.65,2,2.3,3.22,3.31,4.94a2.81,2.81,0,0,0,2.52.42,2.46,2.46,0,0,0,.88-.55c1.4-1.47.79-3.75,1.87-5.35.24-.5.49-1,.73-1.48l.23.16a3.54,3.54,0,0,0,2.95-.77c1.63-2.88,4.3-3.94,7.07-4.82a2.93,2.93,0,0,0,.37.83A6,6,0,0,0,299.26,239.63Z"/><path fill="#ecf2b3" d="M62.67,379.63l-.31.07a4.48,4.48,0,0,0-.14,4.41c1.46,2.8,2.27,5.93,3.87,8.64,0,2.21,1.48,2.31,3,2.45,1.2,2.69,2.77,4.27,5.8,2.74,1.5-.75,3.26-.22,4.89-.42a4.27,4.27,0,0,0,1.61-.51,8.89,8.89,0,0,0,2.72-3.17c.46.12.84-.14,1.16-.68.78-1.56,2.66-2.09,3.17-3.9.36-.93.84-1.71,1.89-1.83.78-.19,1.61-.27,2-1.2a1.71,1.71,0,0,1-.08-.47c1.63.41,1.5-1.44,2.28-2.11a1.18,1.18,0,0,0,0-.25l9.15,0c1.77,1.14,3.82,1.13,5.76,1.55a25.82,25.82,0,0,0,7.92,2.31c3.45.16,5.35-1.15,5.12-5.31a16.48,16.48,0,0,1,1.8-7.28,14.14,14.14,0,0,0,.29-10.62l-2.89-2.31a4.54,4.54,0,0,0-2.87-.79,1.47,1.47,0,0,0-1.44-.77l0-.86L116,357.91a6.27,6.27,0,0,0-3.83-2.4c-1.25-3.86-4.48-5.83-7.05-8.43-.69.27-1.38.54-2.19.88a3.17,3.17,0,0,1-3.23-1.75,1.79,1.79,0,0,0-.89-.37,1.17,1.17,0,0,0-.27.05,4.28,4.28,0,0,0-.87-1.31l-.26-.23a1.34,1.34,0,0,0-.34-1.5c-1.72-.88-3.38-1.11-4.91.56a3,3,0,0,0-.82.23,3.3,3.3,0,0,0-.35.28c-.79-.11-1.58-.2-2.36-.37s-1.71-1.33-2.57-.16c-.73,1,0,1.95.31,2.9h.78c.54,1.53,3,2.35,1.43,4.65a1.34,1.34,0,0,1-.13-.27c-.11,0-.24-.13-.34-.11-4.48.93-4.48.93-5.47-3.87-.61-2.2-.42-5.13-3.79-4.82-1.74.66-2.43,2.35-3.3,3.86a49.47,49.47,0,0,0-4,8.15A14.2,14.2,0,0,1,68,359.45a28.2,28.2,0,0,0-6,9.92,2.44,2.44,0,0,0,.34,1.61l.2.06c-2.25,2.13-2.45,4.8-.65,8.54h.3A1.08,1.08,0,0,1,62.67,379.63Z"/><path fill="#ecf2b3" d="M63.11,339.24c-1-1.21-.19-2.32,1-3.06,0-.49,0-1,0-1.47.43-3.34,1.7-6,4.88-7.19l.38-.1A6.37,6.37,0,0,1,71,325.89c2.68-2.18,6-2.27,9-3.64,1.59-1.06,3-1.22,4.11.54a3,3,0,0,1,.52-.32c2.34-.19,4-2.27,6.32-2.53.9.09,1.82.13,2.07,1.32a.28.28,0,0,0,.34,0c1.45-.16,2.07.73,2.32,2.11-.82,2.65-1.23,5.73-4.94,5.24l-2,0c-1.26,1.46-3.84,1.41-4.78,3.15a3.06,3.06,0,0,0,.12,1.54,1.85,1.85,0,0,1,.39,1.42c-.18,1.48-1.11,1.74-2.27,1.61L80,337.77c-1.91-.49-4,.78-5.8-.76a6.74,6.74,0,0,0-5.07,1.53,1.35,1.35,0,0,1-2,.07l.1-.21-.22.16C65.82,339.72,64.51,340.92,63.11,339.24Z"/><path fill="#ecf2b3" d="M226.82,346.29c-.87,1.22-.43,2.48.05,3.63A88.08,88.08,0,0,1,230.42,361l1.44,3.09v1.54c0,.26,0,.52,0,.79,1.63,1.45,2.84.8,3.66-1s1.88-3.26,2.11-5.21c0-.25,0-.51,0-.76,1.18-1.1.49-2.62.74-3.93-.11-1,.24-2.23-.68-3.07-.63-.21-.35-2.14-1.51-1.53.06-1.78-1.61-2.43-2.16-3.82l-2.15-.06q-.27-.35-.54-.18c-.39-.42-.53-1-.92-1.45,0-.48,0-1,0-1.43-2.27-1.16-3.48-.43-3.58,2.3Zm0,0,.25.32A3.27,3.27,0,0,1,226.82,346.29Z"/><path fill="#ecf2b3" d="M360.09,334.6c.79.9.5,2.08.72,3.13a4.87,4.87,0,0,0,.66,0,11.37,11.37,0,0,0,3,3.54c0,.1,0,.2,0,.3,0,2.24,1.55,3.56,2.65,5.14a6,6,0,0,1-.05,1.52c.49,3.05.5,6.25,2.48,8.81l2.69,4.67.68.09c2,2.79,4.83,3.69,7.95,3.84,3,2.86,2.4,7.49,4.58,10.74.18,1.61,1.63,2.42,2.13,3.83,2.33,1.41,3.72,4.5,6.78,4.59a2.86,2.86,0,0,0,.15.41h2.19a.41.41,0,0,0,.17.5c.25,1.25-1.1,2.5,0,3.77l.68.87c0,.5.06,1,.08,1.5l2.09.8c1.55,1.86,4,1.26,5.79,2.35-.07.53-.14,1-.22,1.58.32.25-.16,1.55.92.82h.29l.29,0,.2.47c-.61,1,.12,1.63.58,2.34a4.57,4.57,0,0,1,.49.63c0,.61.3,1.23.33,1.85l1,.65a2.13,2.13,0,0,0,0,.25c.31,2.17,3.65,2.64,2.66,5.52-.48.91-1,1.82-.73,2.76a4.71,4.71,0,0,0,0,1,3.57,3.57,0,0,0,2.19,2.94,1.66,1.66,0,0,1,1.4,1.54,2.8,2.8,0,0,1,.58,2.77c-.31,2.06.5,3,2.34,3.23,1,1.16,1.93,2.4,3.47,2.74,1.89-.32,2.93-2,4.39-3.07l.75-1.5a2.91,2.91,0,0,0,1.3-2.52,5.15,5.15,0,0,1-1-6.76c2.63-3,.38-4.12-.91-5.86a9.77,9.77,0,0,1-.72-1.26c-.89-2.86.2-5.74-.08-8.61-.13-1.36.08-2.79-.76-4,.14-3.66-1-7.1-1.65-10.62.09-.27.18-.53.28-.8l-.6-1.61c.1-.56.2-1.11.28-1.66a74.52,74.52,0,0,0-1-8.44c-.3-2.2-.71-4.38-1-6.58-.42-1.33-.48-2.75-.77-4.11a10.57,10.57,0,0,1-.4-1.79c.16-.84.31-1.67.47-2.51a4,4,0,0,1,.63-.54,4.85,4.85,0,0,0,1.47-2l.13-.36.76-.37,2-.29.78-.48.77-.91.55-.1c.86-1.06,1.76-2.08,2.61-3.15,1.64-2,2-4.6,2.94-6.94a8.16,8.16,0,0,1,2.34-3.78,35.29,35.29,0,0,0,3.08-3.15,3.88,3.88,0,0,0,.61-3.56c-1.19-2.56-.63-5.38-1.36-8-.24-.79-.49-1.57-.73-2.36-.71-2.88-2.55-5.08-4-7.53-.45-1.75.64-3.36.49-5.09a3.44,3.44,0,0,0,.45,0,2.82,2.82,0,0,1,.82.08,3.48,3.48,0,0,1,.75,1.05c1.11,0,2.31.35,3.22-.6a1.22,1.22,0,0,0,.56.2c3.34-1.3,6.56-2.75,7-7.26a.5.5,0,0,1,.2-.37,1.63,1.63,0,0,0,1.15-1.38c1-1.74,3-1.51,4.46-2.34a6.08,6.08,0,0,0,.71,0,2.22,2.22,0,0,0,.88-.55c0-.1.05-.2.08-.3,1.61-.89,2.51-3.08,4.66-3,1.72-1.09,3.69-.52,5.55-.72.51.09,1.09.12,1.54.25a7.38,7.38,0,0,0,2.14-.3,10.56,10.56,0,0,0,4.14-2.28,15.71,15.71,0,0,0,3-2.84c1.65-2.62,3.4-5.17,5.11-7.77.62-1.49,1.52-2.88,1.53-4.61a1.81,1.81,0,0,0,0-.23c1.42-1.18,2-3.1,3.08-4.54l.82.91c-.07.58-.15,1.17-.22,1.75a1.84,1.84,0,0,0-.55.17,6.22,6.22,0,0,0-1.63,4.13,5.75,5.75,0,0,0,.11,1.12l-.2.39c.29.82.57,1.7,1.49,1.07.87,0,1.4-.6,1.92-1.27.83-2.15,3.07-3.15,3.8-5.38,1.53-1.61,3-3.24,2.68-5.62a1.66,1.66,0,0,1,.26-.39q.3-.37.57-.78c1-1.89,2.86-3.13,3.75-5.16a6.46,6.46,0,0,1,.82-1.59,10.26,10.26,0,0,0,1.73-2l.33-.34c.24-.24.46-.49.68-.75l.18-.23.65-.24a.48.48,0,0,0,.43-.53l.51-1.38c2.77-2.77,3.84-6.47,4.84-10.21,1.6-2.33,1-4.93.68-7.44-.2-1.53-.55-3,0-4.54.39-1.76,1.15-3.48.58-5.35.08-.45-.34-.58-.77-.7a2.44,2.44,0,0,1,0-1.31,3,3,0,0,0,.53.15,4.74,4.74,0,0,0,4.09-.91,10.09,10.09,0,0,0,1.37-3.44,1.09,1.09,0,0,1,.62-.2,1.45,1.45,0,0,0,.66-.66,5.18,5.18,0,0,0,.34-1.51c0-.24,0-.47-.05-.69.7-1.85.67-4.34,3.47-4.37,1.18-2.67,2.93-4.26,5.86-4.61a4.37,4.37,0,0,0,3.81-3.44,1.24,1.24,0,0,0-.12-.46l1.28-1.19a1.39,1.39,0,0,1,.44.14,6.14,6.14,0,0,0,2.88-.65c2-.6,4.06-.88,6.05-1.46,3.2-1.31,6,.19,8.75,1.56.23.25.58.07.93-.06a1,1,0,0,0,.89.23,1.78,1.78,0,0,1,.11.5c.85,1.29,2.55,1.16,3.43,2.39,2.16,1.78,4.21,3.75,7.08,4.12.31,0,.62.09.93.13a3.83,3.83,0,0,0,3,1.38c.26,1.16,1.38,1,2.06,1.56.09.2.18.4.26.6,1.5-.06,3.55.87,3.34-2.18l-2.71-2.29-1.31-.28-3-1.64c-.09-.16-.18-.32-.28-.48a6.83,6.83,0,0,0-.72-.74c1.1-1.8,3.13-.37,4.58-1a1.64,1.64,0,0,0,.26-.53l1.17-.89c.34-.39.48-.76.32-1.08.71-.79,1.84-.64,2.6-1.32l1.56-2.81,2.68-1-2-3.92-2.22-2.24c.86-.41.1-1,.1-1.43l3.51-.93c1.43.55,1.89-1,2.88-1.5V183.8c-.72-1-1.31-2.22-2.85-1.66a.92.92,0,0,1-.1-.56c-.93-.92-.67-1.88-.36-2.85a.5.5,0,0,0,.47-.15.78.78,0,0,1,.55-.25c.2-3.18-1.4-3.68-3.27-3.77a7.36,7.36,0,0,1-.93-.47c-.56-.33-1.08-.73-1.68-1l-.73-.77c-1.5.72-2.06-.54-2.76-1.51l-1.24-.37c-2.61-2.13-5.69-2.05-8.74-2.17a6.33,6.33,0,0,1-1.69.56,34.55,34.55,0,0,0-6.57.33l-.2.14a6.45,6.45,0,0,0-1.59.57l-.69-.24c-2.79,1.26-6.07.68-8.67,2.66L535,172l-1.9.52a7.89,7.89,0,0,0-1.51.29,5.94,5.94,0,0,0-.7.17l-7.46-.16a.66.66,0,0,1-.69,0,1.83,1.83,0,0,1-.69.12c-3.46-1-7-1.76-10.05-4.08a2.79,2.79,0,0,0-2.4.55c-1.34,1-2.39,2.67-4.51,1.58-1.14-.59-2,.24-2.68,1.3l-.25-.11c-4.11.27-8.32.13-11.76,3.23-4.2,3.23-5.6,3.21-10.18-.14-1.48-1.28-3.1-.22-4.65-.34-2.77,1.64-5.88,2.26-9,3.33.05-1.23-1.17-1.33-1.53-2-.7-.89-1.46-.61-2.23-.14a1.25,1.25,0,0,0-.23.37,1.94,1.94,0,0,0-1.18-.57c.24-.71.4-1.44.61-2.16a5.65,5.65,0,0,0,.19-1.58,5,5,0,0,0-.83-2.48l-.28-.47a1.27,1.27,0,0,0-.31-.88.68.68,0,0,1-.08-.54c-.76-1.75.18-3.72-.57-5.47.26-.28.37-.68.63-1,0-.25,0-.5,0-.75l-.73-.07-2.18-.74-2.33.57c-.22,0-.44.1-.66.17-1.86.08-3.84-.75-5.51.83l1.29,1.82c1.4,1.25,2.71,2.75,4.81,2.19-.09.72.09,1.43,0,2.25l-1,.15c-1.68,1.39-4,2.19-3.79,5.2a2.22,2.22,0,0,0,.52,2.37,2.71,2.71,0,0,1-.89.42,1.46,1.46,0,0,0-1.17-1.88c-1.07-.31-2.09-.46-2.88.64-.19,1.43-.6,2.86,0,4.26a1.29,1.29,0,0,0-.67-.07,2.34,2.34,0,0,0-.49-.54.54.54,0,0,0,.08-.3c0-.21,0-.31-.09-.31-.71-1.44-2.43-2.67-.83-4.59-.83-1.17-1.86-.91-2.89-.72-.23-.12-.49-.22-.74-.32a1.41,1.41,0,0,0-1.39.23c-.48.27-1.2.07-1.41.83a2.8,2.8,0,0,1-.7.09c-.25.25-.5.49-.74.74a3.78,3.78,0,0,0-.18,3.79l.21.09c-.08.38-.17.77-.25,1.15a1.82,1.82,0,0,0-.52-.14c-1.1.54-2.43,1-1.19,2.69.16.24.31.49.46.73.34.58.57,1.32,1.44,1a9.21,9.21,0,0,0,6.71,2.14c1.07-.12,1.56,1,2.05,1.89a6,6,0,0,0,2.5,2.81c0,.06.05.13.07.2a6.58,6.58,0,0,0,.55.92,16.62,16.62,0,0,0,4.5,3.38,2.75,2.75,0,0,0,1,0c4.06,6.25,3.63,7.22-3.54,9.9-1,.38-2,.7-3,1-1.27-.38-2,.64-2.83,1.3-.14.2-.21.41-.38.71a2.49,2.49,0,0,1-.5.35,5,5,0,0,0-2.68,1.35c-1.86-.24-3.07.83-4,2.45a3.84,3.84,0,0,0-.22,1.61,1.18,1.18,0,0,0,0,.67l-.15,1.36a1.49,1.49,0,0,1-.51.18,24,24,0,0,1-2.38,1.41c-.1-1.94.95-4-.73-5.75a.71.71,0,0,0-.61-.14c.16-2.11-4-4.08-.17-6.31l.78-1.39c.65-1.2,1.58-2.35.72-3.88-.44-1-.87-2.07-1.31-3.1-.74-1.78-1.38-3.57-.2-5.43.31-2.67,0-5-2.83-5.94-1.3-.85-2.18.64-3.32.69l-3,2.26a5.13,5.13,0,0,0-.06,3c.17.5.33,1,.5,1.5-2,.74-4,1.52-6,2.21-.89.3-1.91.34-1.84,1.76l.74.73.15.81c-.23.54-.45,1.08-.67,1.61-3.23,1.85-3.48-2.21-5.35-3.06-4.27.36-2.82,4.32-3.7,6.81-.43.49-.86,1-1.28,1.48l-1.29,1c-.12.59-.2,1.2-.83,1.45-1.34.94-2.87,1.67-3.29,3.58a1.41,1.41,0,0,0,0,.29c-1,.08-2,.21-2.32,1.63l-2.32,1.55c-1.64-.1-1.16,1.28-1.32,2.2,1,.73,1.23,2.44,2.78,2.41l.72.73c1.14,1.91,3,2.14,4.85,2.39l1.58.79c.71.69,1.78.88,2.32,1.74,1,1.6,1.66,3.31-.54,4.43a4.7,4.7,0,0,0-2.44,3c-.73,1.11-.29,1.69.79,2a1.57,1.57,0,0,0,.47-.13,1.31,1.31,0,0,0,.1.91c2.34,2.94,5,4.91,8.66,2.62,1-.64,2.37,0,3.35-.74a22.34,22.34,0,0,1-.47,2.93c-.42,1.39.1,2.31,1.36,2.57,3.08.63,5.16,3.07,7.67,4.72a1.25,1.25,0,0,0,.66.06l.12.18c.07,2.65-.71,5.44,1.18,7.77,2.45,2.42,4.77,5.05,8.14,6,.11,0,.21,0,.24,0-1.06,1.35-.79,3.14-1.34,4.66a36.33,36.33,0,0,0-.82,4.48c0,2,.07,3.93,2.54,4.19,2.43-1.43,3.08-3.88,3.38-6.62,0,.06.09.12.13.19,1.55,0,2.36-1.56,3.73-1.92,1.14-.62,2.43.22,3.59-.21a2.25,2.25,0,0,0,.51,1.05c2.09,1.71,4.35,0,6.5.4,5.5,0,5.55,0,7,5.71a6.5,6.5,0,0,0,.31,1,3.91,3.91,0,0,1,0,.48,12.74,12.74,0,0,0-.29,2.21c.26,3.39-1.65,5.51-3.85,7.44l-.19.13a2.57,2.57,0,0,0-.63-.28c-1.71-.27-2.9-1.43-4.07-2.69-.77-.83-1.25-2.21-2.72-2-.42-1.35-1.49-1.47-2.68-1.38a3,3,0,0,0-1.91,1.38,7,7,0,0,0-.33,4.14c.11.55.26,1.09.4,1.63.25,1.22.28,2.52,1.12,3.52a2.09,2.09,0,0,0,.63.45,7,7,0,0,0-.81.52c-1,.72-2.29.4-3.39.8a.84.84,0,0,0-.24-.38,1.68,1.68,0,0,0-1.05-.16c-2.16.83-2.55,2.77-2.61,4.89-.05,1.92-.2,3.8-1.44,5.34a6.51,6.51,0,0,1-1.52,1.3l-.18.15c-1-.88-2.27-.53-3.46-.51a4.35,4.35,0,0,0-1,.33,2,2,0,0,0-.66.68,6.53,6.53,0,0,0-2.31-.67c0-1.5-1.19-2.23-2-3.21-2.76-2.38-5.62-3.28-8.69-.61a1.13,1.13,0,0,0-.34,1.09c-1.81-.94-3.14-.81-3.61,1.58a1,1,0,0,0-1.28-.11l-.48,0a6.4,6.4,0,0,0-2.25-.64c-1.43,0-3.1-.74-3.82,1.55a2.38,2.38,0,0,0-.2-.39,2,2,0,0,0-1.93.1c-1.73,2.21-4.18,3.74-5.42,6.43-.68,0-1.38-.05-2,0a2.19,2.19,0,0,0-1.6.2,10.48,10.48,0,0,0-1.68,1.05l-1.88,1.06a1.2,1.2,0,0,0-.21-.17c-1.86-.28-3,1-4.17,2.21-1.16,1.76-2.32,3.51-2.15,5.84.17.6.26,1.27.45,1.87a1.39,1.39,0,0,1-.67,1,1.92,1.92,0,0,0-.95-.46,4.1,4.1,0,0,0-4,.83,1.94,1.94,0,0,0-.51.92,1.12,1.12,0,0,0,0,.48c-2.37-.39-4.57.45-6.77,1.2a1,1,0,0,0-.17,1c-.69.14-1.23.91-2,.55-.5.18-1.12.12-1.51.6a1.38,1.38,0,0,0-1,1.08l-.39.13c-2.53-.15-3.59,1.66-4.4,3.8l-.57.21c0,.43-.09.85-.14,1.28C360.39,332.24,360.68,333.64,360.09,334.6ZM499,240.48c-.1-.07-.14-.16,0-.08ZM422.77,351.1a.68.68,0,0,1,.3-.37Z"/><path fill="#ecf2b3" d="M86.41,248c-1.88-1.26-1.92-3.39-2.21-5.4-.91-.66-.76-1.61-.72-2.52.15-.25.3-.51.44-.77.49-1.68-.7-2.61-1.45-3.74a18.21,18.21,0,0,0-1-3,1.62,1.62,0,0,1-.13-.72,1.47,1.47,0,0,0-.62-.13l-.81-.82c-2.65.56-4.85,1.75-5.82,4.7-2.12,1.6-1.54,2.7.46,3.85,1.27.74,3.25.29,3.77,2.4.07.77.13,1.53.2,2.3l0,1.59A13.67,13.67,0,0,0,82.69,255c2.32,2.14,5.48,2.25,8,3.86,1.61-1.88,3.74-1.55,5.79-1.56,0-.27,0-.53,0-.8.77-.52.08-1,0-1.56s0-1,0-1.47c-1.63-1.64-4.17-.75-5.81-2.39C89.44,249.74,88.79,247.52,86.41,248Z"/><path fill="#ecf2b3" d="M115.73,309.68c-.83.27-1,.93-.88,1.74,1.45,3.36,1.45,3.36-2.46,4.57a3.53,3.53,0,0,1-1.26.17,7.23,7.23,0,0,0-1.37-.11c-1.41-.16-2.77-.26-3.55,1.28-.89,1.79.83,2.69,1.86,3.94l.27.36a2.3,2.3,0,0,1,.43,1.39l.34,0,.34,0c1.32,1.39.57,2.72-.07,4.07s-1.45,2.34-.65,3.81l2.15-.09c5.77.13,5.77.13,7.23-5.43.71-.78,1.41-.6,2.1,0,.71,1.78,2.22,1.56,3.6,1.66,4.17,1.66,6.3.73,10.52-4.61,1.35-6.2.76-7.54-4.53-9.79-1.87-.8-3-2.9-5.16-3.16a1.26,1.26,0,0,0-.78.34l-.71-1.5a4.45,4.45,0,0,0-5.27-2.29C116.09,306.46,114.81,307.46,115.73,309.68Z"/><path fill="#ecf2b3" d="M411.07,286.6a57.15,57.15,0,0,1-6.8,0c-2-.24-2.46-1.58-1.25-3.1a1.49,1.49,0,0,0-.1-.26c-.17-1.93,1.39-1.34,2.24-1.78,1.55-.35,3.13,0,4.68-.26l.51-.14,4.58-2.83c.95-1.61,2.49-1.59,4-1.66a4.5,4.5,0,0,1,2.94-.79c.87-.81,2-.41,3-.74l2.4.73c.81-.15,1.3.47,1.89.87l0,2.2c-.63,1.42-1.62,1.58-2.83.92a1.12,1.12,0,0,1-.31-.68,6.79,6.79,0,0,0-4.86,1.35.84.84,0,0,0-.59.19c-1.24.31-1.2,1.32-1.29,2.26.26.17.35.56.5.87l-.12,2.08c-1.33.72-2.37,2.22-4.14,1.72l-.58-.88L414,286c-.8.8-1.5-.32-2.26-.14Z"/><path fill="#ecf2b3" d="M377.09,92.81s5.94,15.69-1.27,15.69-10.18-1.69-15.27.43-1.69,2.54-7.63,2.54-8.91-.85-14-2.12-3-2.54-9.76-2.54-9.1-.43-12.82,0-4.57,0-9.23.42-4.67,1.27-8.48,1.27H288.46c-5.09,0-11-1.69-12.72,1.27s-5.52,2.55-10.6,2.55-7.44,1.72-12.73,0-25.09-11.45-25.09-11.45-3.74-22.48,26.79-25.45S377.09,92.81,377.09,92.81Z"/></g><path d="M313.25,96.36V444.53c-94.75-1.66-171.06-78.94-171.06-174.08S218.5,98,313.25,96.36Z" style="mix-blend-mode:multiply" fill="#34adc3" opacity=".5"/><circle cx="571.98" cy="172.33" r="7.01" fill="#fff"/><circle cx="642.24" cy="205.07" r="4.85" fill="#fff"/><path fill="#fff" d="M577.1,266.79a5.78,5.78,0,1,0,5.78-5.78A5.78,5.78,0,0,0,577.1,266.79Z"/><path fill="#fff" d="M514.19,158.08a3.51,3.51,0,1,0,3.5-3.51A3.5,3.5,0,0,0,514.19,158.08Z"/><path fill="#fff" d="M484.22,200.63a3.51,3.51,0,1,0,3.5-3.51A3.5,3.5,0,0,0,484.22,200.63Z"/><path fill="#fff" d="M458.62,134.59a3.51,3.51,0,1,0,3.51-3.5A3.51,3.51,0,0,0,458.62,134.59Z"/><path fill="#fff" d="M617.49,180.6a3.51,3.51,0,1,0,3.51-3.5A3.51,3.51,0,0,0,617.49,180.6Z"/><path fill="#fff" d="M537,258.91a3.51,3.51,0,1,0,3.5-3.51A3.5,3.5,0,0,0,537,258.91Z"/><path fill="#fff" d="M519.09,192.53a1.76,1.76,0,1,0,1.75-1.75A1.75,1.75,0,0,0,519.09,192.53Z"/><path fill="#fff" d="M453.54,186.77a1.75,1.75,0,1,0,1.75-1.75A1.75,1.75,0,0,0,453.54,186.77Z"/><path fill="#fff" d="M479,171.4a1.76,1.76,0,1,0,1.76-1.75A1.75,1.75,0,0,0,479,171.4Z"/><path fill="#fff" d="M436.25,148.1a1.76,1.76,0,1,0,1.75-1.75A1.76,1.76,0,0,0,436.25,148.1Z"/><path fill="#fff" d="M505.8,240a1.75,1.75,0,1,0,1.75-1.75A1.75,1.75,0,0,0,505.8,240Z"/><path fill="#fff" d="M541.32,286.52a1.76,1.76,0,1,0,1.75-1.75A1.75,1.75,0,0,0,541.32,286.52Z"/><path fill="#fff" d="M505.8,120.09a1.75,1.75,0,1,0,1.75-1.75A1.75,1.75,0,0,0,505.8,120.09Z"/><path fill="#fff" d="M636.57,236.1a1.76,1.76,0,1,0,1.76-1.75A1.75,1.75,0,0,0,636.57,236.1Z"/><path fill="#fff" d="M572.68,146.17a1.76,1.76,0,1,0,1.76-1.75A1.75,1.75,0,0,0,572.68,146.17Z"/><path fill="#fff" d="M588.66,166a1.76,1.76,0,1,0,1.75-1.75A1.75,1.75,0,0,0,588.66,166Z"/><path fill="#fff" d="M599.44,199.88a1.75,1.75,0,1,0,1.75-1.76A1.75,1.75,0,0,0,599.44,199.88Z"/></g><polygon fill="#fff" points="423.56 217.64 442.01 185.69 460.46 217.64 445.71 217.64 445.71 281.66 438.31 281.66 438.31 217.64 423.56 217.64"/><polygon fill="#fff" points="376.12 217.64 394.57 185.69 413.02 217.64 398.27 217.64 398.27 281.66 390.87 281.66 390.87 217.64 376.12 217.64"/><polygon fill="#fff" points="328.13 217.64 346.58 185.69 365.02 217.64 350.28 217.64 350.28 281.66 342.88 281.66 342.88 217.64 328.13 217.64"/><path fill="#cbced1" d="M442.7,281.66h-4.39v-64H423.56L442,185.69S443.13,253.53,442.7,281.66Z"/><path fill="#cbced1" d="M395,281.66h-4.4v-64H375.85l18.45-31.95S395.42,253.53,395,281.66Z"/><path fill="#cbced1" d="M347.27,281.66h-4.39v-64H328.13l18.45-31.95S347.69,253.53,347.27,281.66Z"/><path fill="#fff" d="M175,152.41a9.32,9.32,0,0,1,17.84-3.32A14.46,14.46,0,0,1,216,141.55a21,21,0,0,1,40.28-2A14.43,14.43,0,0,1,275.15,146a9.3,9.3,0,0,1,15.65,6.37Z"/><path fill="#d0d6c8" d="M192.87,149.09A14.46,14.46,0,0,1,216,141.55a21,21,0,0,1,20.45-16.19c.19,0,.36,0,.55,0v27H175a9.32,9.32,0,0,1,17.84-3.32Z"/><path fill="#fff" d="M648.14,67.3a5.69,5.69,0,0,0-8.84-4.22A10,10,0,0,0,628.43,58a17.06,17.06,0,0,0-32.1-4.84,12.2,12.2,0,0,0-1.82-.18,12.4,12.4,0,0,0-11.1,6.92,10,10,0,0,0-14.54,2.49,5.78,5.78,0,0,0-1.62-.26,5.68,5.68,0,0,0-5.65,5.19Z"/><path fill="#e2e4e8" d="M568.87,62.37a10,10,0,0,1,14.54-2.49A12.4,12.4,0,0,1,594.51,53a12.2,12.2,0,0,1,1.82.18,17.07,17.07,0,0,1,15-9.43V67.3H561.6a5.68,5.68,0,0,1,5.65-5.19A5.78,5.78,0,0,1,568.87,62.37Z"/><path fill="#fff" d="M269.39,51.48a3.74,3.74,0,0,0-5.82-2.78,6.61,6.61,0,0,0-5.81-3.5,6.72,6.72,0,0,0-1.35.14,11.24,11.24,0,0,0-21.14-3.18,7.74,7.74,0,0,0-1.19-.12,8.17,8.17,0,0,0-7.32,4.56,6.54,6.54,0,0,0-9.57,1.64,3.66,3.66,0,0,0-4.79,3.24Z"/><path fill="#e2e4e8" d="M217.19,48.24a6.54,6.54,0,0,1,9.57-1.64A8.17,8.17,0,0,1,234.08,42a7.74,7.74,0,0,1,1.19.12,11.23,11.23,0,0,1,10-6.21V51.48H212.4a3.66,3.66,0,0,1,4.79-3.24Z"/><circle cx="406.15" cy="49.21" r="24.03" fill="#ffe375" transform="rotate(-67.5 406.15 49.208)"/><path fill="#e2c15a" d="M405.44,25.21v48a24,24,0,0,1,0-48Z"/><path fill="#fff" d="M278.77,77.36a10.33,10.33,0,0,1,16.07-7.66,18.18,18.18,0,0,1,19.76-9.29A31,31,0,0,1,373,51.62a21.61,21.61,0,0,1,23.5,12.25,18.12,18.12,0,0,1,26.43,4.53,10.23,10.23,0,0,1,2.95-.47,10.35,10.35,0,0,1,10.28,9.43Z"/><path fill="#e2e4e8" d="M344.51,77.36H278.77a10.34,10.34,0,0,1,16.07-7.67,18.18,18.18,0,0,1,19.76-9.28A31,31,0,0,1,344.51,34.5Z"/><path fill="#fff" d="M474.15,42.46a3.83,3.83,0,0,0-6-2.84A6.73,6.73,0,0,0,462.25,36a6.34,6.34,0,0,0-1.38.15,11.5,11.5,0,0,0-21.64-3.27,10,10,0,0,0-1.23-.12,8.37,8.37,0,0,0-7.49,4.67,6.7,6.7,0,0,0-9.79,1.68,3.62,3.62,0,0,0-1.1-.18,3.84,3.84,0,0,0-3.81,3.5Z"/><path fill="#e2e4e8" d="M420.72,39.14a6.7,6.7,0,0,1,9.79-1.68,8.08,8.08,0,0,1,8.72-4.55,11.51,11.51,0,0,1,10.19-6.36V42.46H415.81a3.84,3.84,0,0,1,3.81-3.5A3.62,3.62,0,0,1,420.72,39.14Z"/><path fill="#579669" d="M74.3,383.91c12.54-11.3,34.69-18.83,60-18.83l.7,0c17-17,50.26-28.51,88.48-28.51,37.13,0,69.49,10.92,86.91,27.11,17.43-16.19,49.78-27.11,86.92-27.11,42.44,0,78.66,14.24,93.43,34.35,15-11.32,38.8-18.67,65.69-18.67,36.17,0,66.81,13.25,77.8,31.64Z"/><path fill="#478457" d="M392,383.91H74.3c12.54-11.3,34.69-18.83,60-18.83l.7,0c17-17,50.26-28.51,88.48-28.51,37.13,0,69.49,10.92,86.91,27.11,16.58-15.41,46.69-26,81.57-27Z"/><path fill="#1d2d44" d="M38,380H638.72a3.55,3.55,0,1,1,0,7.09H38A3.55,3.55,0,0,1,38,380Z"/><path fill="#36774c" d="M344.69,365.64s2.73,1,3.54-2.65a2.87,2.87,0,0,0,2.94-.51,3.81,3.81,0,0,0,1-3.57,3.58,3.58,0,0,0,2.6-2.27c.67-2,0-3.74-1.1-4.17a3.6,3.6,0,0,0-.46-4.28c-1.18-1.4-3.45-.74-3.45-.74a2.7,2.7,0,0,0-2.1-3,3.19,3.19,0,0,0-3,.68,3.54,3.54,0,0,0-3.12-1,3,3,0,0,0-2.83,2.13,3.3,3.3,0,0,0-2.57.93,4,4,0,0,0-.74,3.23,2.42,2.42,0,0,0-1.55,2.31,3.47,3.47,0,0,0,1.12,3,3.76,3.76,0,0,0,.25,3.45,3.61,3.61,0,0,1,2.44,3.75,2.57,2.57,0,0,0,2.13,1,2.19,2.19,0,0,0,2.47,1.72A19.31,19.31,0,0,1,344.69,365.64Z"/><path fill="#2b6441" d="M342.29,365.66a2.19,2.19,0,0,1-2.47-1.72,2.57,2.57,0,0,1-2.13-1,3.61,3.61,0,0,0-2.44-3.75,3.76,3.76,0,0,1-.25-3.45,3.47,3.47,0,0,1-1.12-3,2.42,2.42,0,0,1,1.55-2.31,4,4,0,0,1,.74-3.23,3.3,3.3,0,0,1,2.57-.93,3,3,0,0,1,2.83-2.13,3.54,3.54,0,0,1,3.12,1v20.48A19.31,19.31,0,0,0,342.29,365.66Z"/><path fill="#986b54" d="M347.45,380a101.06,101.06,0,0,1-1.58-10.26c-.65-6.11,1.22-11,2.94-12.58l-.5-.56s-2.27,2.87-2.57,4.88l-.32-8h-1.13l-.24,2.86-2.87-2.86h-.41l3.16,3.68-.07,1.63a6.24,6.24,0,0,0-4.68-3.16l-.27.25a6.12,6.12,0,0,1,4.63,4.13,67.16,67.16,0,0,1-.53,9.41A61.87,61.87,0,0,1,340.59,380Z"/><path fill="#36774c" d="M349.77,358.07s-2-.07-2-1.89,3.57,0,3.57,0Z"/><path fill="#2b6441" d="M350,351.89a1.59,1.59,0,0,0-1.65-1.89,1.27,1.27,0,0,0-1.92-.88s1.52.07,1.6,1.19C348.06,350.31,349.91,350.21,350,351.89Z"/><path fill="#36774c" d="M341,350.66a1.6,1.6,0,0,0-2.5.22s-1.39-.68-1.84,1c0,0,.95-1.18,1.9-.58A1.81,1.81,0,0,1,341,350.66Z"/><path fill="#36774c" d="M343.09,347.16a2.34,2.34,0,0,0-2.67.55S341,345.87,343.09,347.16Z"/><path fill="#2b6441" d="M352,356.17a2.34,2.34,0,0,0-2.32-1.43S351.33,353.79,352,356.17Z"/><path fill="#2b6441" d="M349.16,358a2.58,2.58,0,0,1-1.4-1.78A1.62,1.62,0,0,0,349.16,358Z"/><path fill="#895b46" d="M343.54,360a6.12,6.12,0,0,0-4.63-4.13l.27-.25a6.24,6.24,0,0,1,4.68,3.16l.07-1.63-3.16-3.68h.41l2.87,2.86.24-2.86h.4V380h-4.1A61.87,61.87,0,0,0,343,369.42,67.16,67.16,0,0,0,343.54,360Z"/><path fill="#2b6441" d="M346.45,354.34a2.28,2.28,0,0,1-1.54-.86,1.06,1.06,0,0,1-1.26.43c-.79-.31.21-1.51.21-1.51h2.59Z"/><polygon fill="#36774c" points="344.69 353.55 344.69 352.2 346.31 352.2 346.26 354.27 345.67 354.11 344.91 353.48 344.69 353.55"/><path fill="#36774c" d="M346.45,354.34a2.23,2.23,0,0,1-1.54-.86,1.06,1.06,0,0,1-1.49.26,1.81,1.81,0,0,0,1.51-.63A3.81,3.81,0,0,0,346.45,354.34Z"/><polygon fill="#36774c" points="345.99 352.36 345.99 356.18 347.76 354.55 347.25 352.36 345.99 352.36"/><path fill="#2b6441" d="M341.49,352.81s.34.95-.88,1.53,0-1.68,0-1.68Z"/><path fill="#36774c" d="M341.53,353.11a1.35,1.35,0,0,1-.92,1.23s0,.41-.55.44a.72.72,0,0,0,.39-.64A1.65,1.65,0,0,0,341.53,353.11Z"/><path fill="#2b6441" d="M339.48,355a1.19,1.19,0,0,1-.21,1.92c-1.25.93,0-1.92,0-1.92Z"/><path fill="#36774c" d="M339.48,355a1.31,1.31,0,0,1,.34,1.22,1,1,0,0,1-.91.77A1.57,1.57,0,0,0,339.48,355Z"/><path fill="#ee4b38" d="M350.24,350.09a.87.87,0,1,0,.87-.87A.86.86,0,0,0,350.24,350.09Z"/><path fill="#c9382d" d="M350.24,350.09a.87.87,0,0,1,.87-.87V351A.86.86,0,0,1,350.24,350.09Z"/><path fill="#ee4b38" d="M346.14,353.24a.87.87,0,0,0,1.73,0,.87.87,0,1,0-1.73,0Z"/><path fill="#c9382d" d="M346.14,353.24a.86.86,0,0,1,.86-.87v1.73A.85.85,0,0,1,346.14,353.24Z"/><path fill="#ee4b38" d="M341.35,349.42a.87.87,0,1,0,.87-.87A.87.87,0,0,0,341.35,349.42Z"/><path fill="#c9382d" d="M341.35,349.42a.87.87,0,0,1,.87-.87v1.73A.87.87,0,0,1,341.35,349.42Z"/><path fill="#ee4b38" d="M335.77,354.1a.87.87,0,1,0,.87-.86A.87.87,0,0,0,335.77,354.1Z"/><path fill="#c9382d" d="M335.77,354.1a.87.87,0,0,1,.87-.86V355A.87.87,0,0,1,335.77,354.1Z"/><path fill="#ee4b38" d="M339,359.91a.87.87,0,1,0,.87-.87A.87.87,0,0,0,339,359.91Z"/><path fill="#c9382d" d="M339,359.91a.87.87,0,0,1,.87-.87v1.74A.87.87,0,0,1,339,359.91Z"/><path fill="#ee4b38" d="M350,357.06a.87.87,0,1,0,.87-.86A.87.87,0,0,0,350,357.06Z"/><path fill="#c9382d" d="M350,357.06a.86.86,0,0,1,.87-.86v1.73A.87.87,0,0,1,350,357.06Z"/><rect width="41.99" height="41.99" x="292.35" y="338.05" fill="#e2e4e8" transform="rotate(180 313.34 359.05)"/><rect width="21.06" height="41.99" x="292.35" y="338.05" fill="#c6c9ce" transform="rotate(180 302.875 359.05)"/><rect width="41.99" height="6.12" x="292.35" y="373.93" fill="#c6c9ce" transform="rotate(180 313.34 376.985)"/><rect width="21.06" height="6.12" x="292.35" y="373.93" fill="#a9aeb7" transform="rotate(180 302.875 376.985)"/><rect width="41.99" height="1.16" x="292.35" y="372.77" fill="#abb0b7" transform="rotate(180 313.34 373.35)"/><rect width="21.06" height="1.16" x="292.35" y="372.77" fill="#8d939e" transform="rotate(180 302.875 373.35)"/><rect width="41.99" height=".58" x="292.35" y="366.07" fill="#abb0b7" transform="rotate(180 313.34 366.365)"/><rect width="21.06" height=".58" x="292.35" y="366.07" fill="#8d939e" transform="rotate(180 302.875 366.365)"/><rect width="41.99" height=".58" x="292.35" y="359.5" fill="#abb0b7" transform="rotate(180 313.34 359.79)"/><rect width="21.06" height=".58" x="292.35" y="359.5" fill="#8d939e" transform="rotate(180 302.875 359.79)"/><rect width="41.99" height=".58" x="292.35" y="352.65" fill="#abb0b7" transform="rotate(180 313.34 352.94)"/><rect width="21.06" height=".58" x="292.35" y="352.65" fill="#8d939e" transform="rotate(180 302.875 352.94)"/><rect width="41.99" height=".58" x="292.35" y="346.08" fill="#abb0b7" transform="rotate(180 313.34 346.365)"/><rect width="21.06" height=".58" x="292.35" y="346.08" fill="#8d939e" transform="rotate(180 302.875 346.365)"/><rect width="3.01" height="3.01" x="308.07" y="341.46" fill="#0096ae"/><rect width="3.01" height="3.01" x="301.37" y="341.46" fill="#0096ae"/><rect width="3.01" height="3.01" x="294.51" y="341.46" fill="#0096ae"/><rect width="3.01" height="3.01" x="308.07" y="348.15" fill="#0096ae"/><rect width="3.01" height="3.01" x="301.37" y="348.15" fill="#0096ae"/><rect width="3.01" height="3.01" x="294.51" y="348.15" fill="#0096ae"/><rect width="3.01" height="3.01" x="308.07" y="354.84" fill="#0096ae"/><rect width="3.01" height="3.01" x="301.37" y="354.84" fill="#0096ae"/><rect width="3.01" height="3.01" x="294.51" y="354.84" fill="#0096ae"/><rect width="3.01" height="3.01" x="308.07" y="361.53" fill="#0096ae"/><rect width="3.01" height="3.01" x="301.37" y="361.53" fill="#0096ae"/><rect width="3.01" height="3.01" x="294.51" y="361.53" fill="#0096ae"/><rect width="3.01" height="3.01" x="308.07" y="368.22" fill="#0096ae"/><rect width="3.01" height="3.01" x="301.37" y="368.22" fill="#0096ae"/><rect width="3.01" height="3.01" x="294.51" y="368.22" fill="#0096ae"/><rect width="3.01" height="3.01" x="329.31" y="341.46" fill="#0096ae"/><rect width="3.01" height="3.01" x="322.62" y="341.46" fill="#0096ae"/><rect width="3.01" height="3.01" x="315.76" y="341.46" fill="#0096ae"/><rect width="3.01" height="3.01" x="329.31" y="348.15" fill="#0096ae"/><rect width="3.01" height="3.01" x="322.62" y="348.15" fill="#0096ae"/><rect width="3.01" height="3.01" x="315.76" y="348.15" fill="#0096ae"/><rect width="3.01" height="3.01" x="329.31" y="354.84" fill="#0096ae"/><rect width="3.01" height="3.01" x="322.62" y="354.84" fill="#0096ae"/><rect width="3.01" height="3.01" x="315.76" y="354.84" fill="#0096ae"/><rect width="3.01" height="3.01" x="329.31" y="361.53" fill="#0096ae"/><rect width="3.01" height="3.01" x="322.62" y="361.53" fill="#0096ae"/><rect width="3.01" height="3.01" x="315.76" y="361.53" fill="#0096ae"/><rect width="3.01" height="3.01" x="329.31" y="368.22" fill="#0096ae"/><rect width="3.01" height="3.01" x="322.62" y="368.22" fill="#0096ae"/><rect width="3.01" height="3.01" x="315.76" y="368.22" fill="#0096ae"/><polygon fill="#ff793c" points="298.35 332.53 328.46 332.53 336.2 338.05 290.61 338.05 298.35 332.53"/><polygon fill="#d65d2d" points="313.34 338.05 290.61 338.05 298.35 332.53 313.34 332.53 313.34 338.05"/><path fill="#245940" d="M290.72,357.56s4.25,1.54,5.52-4.14c0,0,2.88,1.08,4.59-.8a5.93,5.93,0,0,0,1.62-5.57,5.62,5.62,0,0,0,4.07-3.55c1-3.07,0-5.83-1.72-6.51a5.61,5.61,0,0,0-.72-6.68c-1.85-2.19-5.38-1.16-5.38-1.16a4.22,4.22,0,0,0-3.28-4.64,5,5,0,0,0-4.7,1.07,5.51,5.51,0,0,0-4.89-1.54c-3.83.4-4.42,3.31-4.42,3.31a5.11,5.11,0,0,0-4,1.46,6.26,6.26,0,0,0-1.16,5.05s-2.14.55-2.41,3.59a5.41,5.41,0,0,0,1.74,4.7,5.91,5.91,0,0,0,.39,5.4,5,5,0,0,0,2.86,2.16,5.08,5.08,0,0,0,.95,3.7,4,4,0,0,0,3.33,1.48,3.42,3.42,0,0,0,3.85,2.7A31.7,31.7,0,0,1,290.72,357.56Z"/><path fill="#1c4533" d="M287,357.59a3.42,3.42,0,0,1-3.85-2.7,4,4,0,0,1-3.33-1.48,5.08,5.08,0,0,1-.95-3.7,5,5,0,0,1-2.86-2.16,5.91,5.91,0,0,1-.39-5.4,5.41,5.41,0,0,1-1.74-4.7c.27-3,2.41-3.59,2.41-3.59a6.26,6.26,0,0,1,1.16-5.05,5.11,5.11,0,0,1,4-1.46s.59-2.91,4.42-3.31a5.51,5.51,0,0,1,4.89,1.54v32A31.7,31.7,0,0,0,287,357.59Z"/><path fill="#986b54" d="M295,380a155.74,155.74,0,0,1-2.47-16c-1-9.53,1.9-17.2,4.59-19.64l-.78-.87s-3.55,4.48-4,7.62l-.5-12.56h-1.76l-.38,4.48-4.48-4.48h-.63l4.93,5.75-.11,2.55s-1.72-3.92-7.31-4.93l-.42.38s5.65,1,7.22,6.46a103.84,103.84,0,0,1-.82,14.68c-1.74,11-3.78,16.59-3.78,16.59Z"/><path fill="#245940" d="M298.65,345.74s-3.18-.11-3.14-2.95,5.57,0,5.57,0Z"/><path fill="#1c4533" d="M285.72,337.52s.52,1.49-1.39,2.39,0-2.62,0-2.62Z"/><path fill="#1c4533" d="M282.58,340.87a1.86,1.86,0,0,1-.34,3c-1.94,1.46,0-3,0-3Z"/><path fill="#1c4533" d="M299.05,336.08a2.47,2.47,0,0,0-2.57-2.94s-.43-2.39-3-1.38c0,0,2.38.11,2.5,1.86C296,333.62,298.86,333.47,299.05,336.08Z"/><path fill="#245940" d="M284.92,334.17a2.48,2.48,0,0,0-3.9.34s-2.18-1.07-2.88,1.61c0,0,1.48-1.85,3-.92C281.11,335.2,282.69,332.78,284.92,334.17Z"/><path fill="#245940" d="M288.21,328.7a3.65,3.65,0,0,0-4.16.86S284.93,326.68,288.21,328.7Z"/><path fill="#1c4533" d="M302.09,342.76a3.64,3.64,0,0,0-3.62-2.22S301.09,339.05,302.09,342.76Z"/><path fill="#1c4533" d="M297.7,345.57a4,4,0,0,1-2.19-2.78A2.53,2.53,0,0,0,297.7,345.57Z"/><path fill="#245940" d="M285.78,338a2.12,2.12,0,0,1-1.45,1.92s.07.63-.84.69a1.13,1.13,0,0,0,.6-1A2.58,2.58,0,0,0,285.78,338Z"/><path fill="#245940" d="M282.58,340.87a2.11,2.11,0,0,1,.53,1.92,1.63,1.63,0,0,1-1.42,1.2A2.46,2.46,0,0,0,282.58,340.87Z"/><path fill="#895b46" d="M288.91,348.77c-1.57-5.5-7.22-6.46-7.22-6.46l.42-.38c5.59,1,7.31,4.93,7.31,4.93l.11-2.55-4.93-5.75h.63l4.48,4.48.38-4.48h.63V380h-6.41s2-5.56,3.78-16.59A103.84,103.84,0,0,0,288.91,348.77Z"/><path fill="#1c4533" d="M293.45,339.91a3.53,3.53,0,0,1-2.39-1.35,1.69,1.69,0,0,1-2,.68c-1.23-.49.34-2.36.34-2.36h4Z"/><polygon fill="#245940" points="290.71 338.68 290.71 336.57 293.24 336.57 293.17 339.8 292.24 339.54 291.06 338.56 290.71 338.68"/><path fill="#245940" d="M293.45,339.91a3.41,3.41,0,0,1-2.39-1.35,1.67,1.67,0,0,1-2.34.41,2.8,2.8,0,0,0,2.37-1A6,6,0,0,0,293.45,339.91Z"/><polygon fill="#245940" points="292.75 336.82 292.75 342.79 295.5 340.24 294.7 336.82 292.75 336.82"/><path fill="#36774c" d="M272.37,365.64s2.72,1,3.54-2.65a2.87,2.87,0,0,0,2.94-.51,3.81,3.81,0,0,0,1-3.57,3.58,3.58,0,0,0,2.6-2.27c.66-2,0-3.74-1.1-4.17a3.6,3.6,0,0,0-.46-4.28c-1.18-1.4-3.45-.74-3.45-.74a2.7,2.7,0,0,0-2.1-3,3.18,3.18,0,0,0-3,.68,3.55,3.55,0,0,0-3.13-1,3,3,0,0,0-2.83,2.13,3.28,3.28,0,0,0-2.56.93,4,4,0,0,0-.75,3.23,2.42,2.42,0,0,0-1.54,2.31,3.48,3.48,0,0,0,1.11,3,3.8,3.8,0,0,0,.25,3.45,3.28,3.28,0,0,0,1.84,1.39,3.21,3.21,0,0,0,.61,2.36,2.57,2.57,0,0,0,2.13,1,2.19,2.19,0,0,0,2.47,1.72A19.39,19.39,0,0,1,272.37,365.64Z"/><path fill="#2b6441" d="M270,365.66a2.19,2.19,0,0,1-2.47-1.72,2.57,2.57,0,0,1-2.13-1,3.21,3.21,0,0,1-.61-2.36,3.28,3.28,0,0,1-1.84-1.39,3.8,3.8,0,0,1-.25-3.45,3.48,3.48,0,0,1-1.11-3,2.42,2.42,0,0,1,1.54-2.31,4,4,0,0,1,.75-3.23,3.28,3.28,0,0,1,2.56-.93,3,3,0,0,1,2.83-2.13,3.55,3.55,0,0,1,3.13,1v20.48A19.39,19.39,0,0,0,270,365.66Z"/><path fill="#986b54" d="M275.13,380a97.7,97.7,0,0,1-1.58-10.26c-.65-6.11,1.22-11,2.94-12.58l-.5-.56s-2.27,2.87-2.57,4.88l-.32-8H272l-.25,2.86-2.86-2.86h-.41l3.16,3.68-.07,1.63a6.24,6.24,0,0,0-4.68-3.16l-.27.25a6.1,6.1,0,0,1,4.62,4.13,66.45,66.45,0,0,1-.52,9.41A61.87,61.87,0,0,1,268.27,380Z"/><path fill="#36774c" d="M277.45,358.07s-2-.07-2-1.89,3.57,0,3.57,0Z"/><path fill="#2b6441" d="M277.71,351.89a1.59,1.59,0,0,0-1.65-1.89s-.27-1.53-1.93-.88c0,0,1.52.07,1.6,1.19C275.73,350.31,277.58,350.21,277.71,351.89Z"/><path fill="#36774c" d="M268.66,350.66a1.6,1.6,0,0,0-2.5.22,1.28,1.28,0,0,0-1.85,1s.95-1.18,1.91-.58A1.81,1.81,0,0,1,268.66,350.66Z"/><path fill="#36774c" d="M270.77,347.16a2.34,2.34,0,0,0-2.67.55S268.66,345.87,270.77,347.16Z"/><path fill="#2b6441" d="M279.66,356.17a2.34,2.34,0,0,0-2.32-1.43S279,353.79,279.66,356.17Z"/><path fill="#2b6441" d="M276.84,358a2.58,2.58,0,0,1-1.4-1.78A1.62,1.62,0,0,0,276.84,358Z"/><path fill="#895b46" d="M271.21,360a6.1,6.1,0,0,0-4.62-4.13l.27-.25a6.24,6.24,0,0,1,4.68,3.16l.07-1.63-3.16-3.68h.41l2.86,2.86.25-2.86h.4V380h-4.1a61.87,61.87,0,0,0,2.42-10.62A66.45,66.45,0,0,0,271.21,360Z"/><path fill="#2b6441" d="M274.12,354.34a2.27,2.27,0,0,1-1.53-.86,1.08,1.08,0,0,1-1.27.43c-.79-.31.22-1.51.22-1.51h2.58Z"/><polygon fill="#36774c" points="272.37 353.55 272.37 352.2 273.99 352.2 273.94 354.27 273.35 354.11 272.59 353.48 272.37 353.55"/><path fill="#36774c" d="M274.12,354.34a2.22,2.22,0,0,1-1.53-.86,1.07,1.07,0,0,1-1.5.26,1.83,1.83,0,0,0,1.52-.63A3.83,3.83,0,0,0,274.12,354.34Z"/><polygon fill="#36774c" points="273.67 352.36 273.67 356.18 275.44 354.55 274.93 352.36 273.67 352.36"/><path fill="#2b6441" d="M269.17,352.81s.33.95-.89,1.53,0-1.68,0-1.68Z"/><path fill="#36774c" d="M269.21,353.11a1.35,1.35,0,0,1-.93,1.23s0,.41-.54.44a.72.72,0,0,0,.39-.64A1.67,1.67,0,0,0,269.21,353.11Z"/><path fill="#2b6441" d="M267.16,355a1.19,1.19,0,0,1-.22,1.92c-1.24.93,0-1.92,0-1.92Z"/><path fill="#36774c" d="M267.16,355a1.34,1.34,0,0,1,.34,1.22,1,1,0,0,1-.91.77A1.58,1.58,0,0,0,267.16,355Z"/><path fill="#ee4b38" d="M277.92,350.09a.87.87,0,1,0,.87-.87A.86.86,0,0,0,277.92,350.09Z"/><path fill="#c9382d" d="M277.92,350.09a.87.87,0,0,1,.87-.87V351A.86.86,0,0,1,277.92,350.09Z"/><path fill="#ee4b38" d="M273.81,353.24a.87.87,0,1,0,.87-.87A.86.86,0,0,0,273.81,353.24Z"/><path fill="#c9382d" d="M273.81,353.24a.87.87,0,0,1,.87-.87v1.73A.86.86,0,0,1,273.81,353.24Z"/><path fill="#ee4b38" d="M269,349.42a.87.87,0,1,0,.87-.87A.87.87,0,0,0,269,349.42Z"/><path fill="#c9382d" d="M269,349.42a.87.87,0,0,1,.87-.87v1.73A.87.87,0,0,1,269,349.42Z"/><path fill="#ee4b38" d="M263.44,354.1a.87.87,0,1,0,.87-.86A.87.87,0,0,0,263.44,354.1Z"/><path fill="#c9382d" d="M263.44,354.1a.87.87,0,0,1,.87-.86V355A.87.87,0,0,1,263.44,354.1Z"/><path fill="#ee4b38" d="M266.69,359.91a.87.87,0,1,0,.87-.87A.87.87,0,0,0,266.69,359.91Z"/><path fill="#c9382d" d="M266.69,359.91a.87.87,0,0,1,.87-.87v1.74A.87.87,0,0,1,266.69,359.91Z"/><path fill="#ee4b38" d="M277.63,357.06a.87.87,0,1,0,.87-.86A.87.87,0,0,0,277.63,357.06Z"/><path fill="#c9382d" d="M277.63,357.06a.86.86,0,0,1,.87-.86v1.73A.87.87,0,0,1,277.63,357.06Z"/><rect width="55.48" height="51.74" x="214.01" y="328.31" fill="#e2e4e8" transform="rotate(180 241.75 354.175)"/><rect width="4.87" height="4.55" x="232.16" y="344.78" fill="#e2e4e8" transform="rotate(180 234.6 347.05)"/><rect width="26.88" height="51.74" x="214.01" y="328.31" fill="#c6c9ce" transform="rotate(180 227.455 354.175)"/><rect width="3.38" height="6.51" x="232.91" y="334.8" fill="#0096ae"/><rect width="3.38" height="6.51" x="224.83" y="334.8" fill="#0096ae"/><rect width="3.38" height="6.51" x="216.74" y="334.8" fill="#0096ae"/><rect width="3.38" height="6.51" x="232.91" y="346.07" fill="#0096ae"/><rect width="3.38" height="6.51" x="224.83" y="346.07" fill="#0096ae"/><rect width="3.38" height="6.51" x="216.74" y="346.07" fill="#0096ae"/><rect width="3.38" height="6.51" x="232.91" y="356.54" fill="#0096ae"/><rect width="3.38" height="6.51" x="224.83" y="356.54" fill="#0096ae"/><rect width="3.38" height="6.51" x="257.73" y="334.8" fill="#0096ae"/><rect width="3.38" height="6.51" x="249.65" y="334.8" fill="#0096ae"/><rect width="3.38" height="6.51" x="257.73" y="346.07" fill="#0096ae"/><rect width="3.38" height="6.51" x="249.65" y="346.07" fill="#0096ae"/><rect width="3.38" height="6.51" x="257.73" y="356.54" fill="#0096ae"/><rect width="3.38" height="6.51" x="249.65" y="356.54" fill="#0096ae"/><rect width="3.38" height="6.51" x="216.74" y="356.54" fill="#0096ae"/><rect width="3.38" height="6.51" x="232.91" y="367.81" fill="#0096ae"/><rect width="3.38" height="6.51" x="224.83" y="367.81" fill="#0096ae"/><rect width="3.38" height="6.51" x="216.74" y="367.81" fill="#0096ae"/><polygon fill="#e2e4e8" points="269.49 328.31 255.19 308.15 240.9 328.31 269.49 328.31"/><polygon fill="#ff793c" points="214.01 328.31 226.18 308.15 255.19 308.15 240.9 328.31 214.01 328.31"/><rect width="11.09" height="12.81" x="249.65" y="367.23" fill="#6b6a5c" transform="rotate(180 255.19 373.64)"/><rect width="5.55" height="12.81" x="249.65" y="367.23" fill="#5b5a4d" transform="rotate(180 252.42 373.64)"/><rect width="55.48" height=".66" x="214.01" y="364.84" fill="#abb0b7" transform="rotate(180 241.75 365.165)"/><rect width="26.88" height=".66" x="214.01" y="364.84" fill="#8d939e" transform="rotate(180 227.455 365.165)"/><rect width="55.48" height=".66" x="214.01" y="354.18" fill="#abb0b7" transform="rotate(180 241.75 354.51)"/><rect width="26.88" height=".66" x="214.01" y="354.18" fill="#8d939e" transform="rotate(180 227.455 354.51)"/><rect width="55.48" height=".66" x="214.01" y="343.53" fill="#abb0b7" transform="rotate(180 241.75 343.855)"/><rect width="26.88" height=".66" x="214.01" y="343.53" fill="#8d939e" transform="rotate(180 227.455 343.855)"/><rect width="55.48" height=".66" x="214.01" y="328.33" fill="#abb0b7" transform="rotate(180 241.75 328.66)"/><rect width="26.88" height=".66" x="214.01" y="328.33" fill="#8d939e" transform="rotate(180 227.455 328.66)"/><rect width="83.78" height="58.76" x="136.8" y="321.29" fill="#e2e4e8" transform="rotate(180 178.69 350.665)"/><rect width="7.36" height="5.16" x="164.21" y="339.99" fill="#e2e4e8" transform="rotate(180 167.89 342.575)"/><rect width="40.6" height="58.76" x="136.8" y="321.29" fill="#c6c9ce" transform="rotate(180 157.1 350.665)"/><rect width="5.11" height="7.39" x="165.34" y="328.66" fill="#0096ae"/><rect width="5.11" height="7.39" x="153.13" y="328.66" fill="#0096ae"/><rect width="5.11" height="7.39" x="140.92" y="328.66" fill="#0096ae"/><rect width="5.11" height="7.39" x="165.34" y="341.46" fill="#0096ae"/><rect width="5.11" height="7.39" x="153.13" y="341.46" fill="#0096ae"/><rect width="5.11" height="7.39" x="140.92" y="341.46" fill="#0096ae"/><rect width="5.11" height="7.39" x="165.34" y="353.35" fill="#0096ae"/><rect width="5.11" height="7.39" x="153.13" y="353.35" fill="#0096ae"/><rect width="5.11" height="7.39" x="202.83" y="328.66" fill="#0096ae"/><rect width="5.11" height="7.39" x="190.62" y="328.66" fill="#0096ae"/><rect width="5.11" height="7.39" x="202.83" y="341.46" fill="#0096ae"/><rect width="5.11" height="7.39" x="190.62" y="341.46" fill="#0096ae"/><rect width="5.11" height="7.39" x="202.83" y="353.35" fill="#0096ae"/><rect width="5.11" height="7.39" x="190.62" y="353.35" fill="#0096ae"/><rect width="5.11" height="7.39" x="140.92" y="353.35" fill="#0096ae"/><rect width="5.11" height="7.39" x="165.34" y="366.15" fill="#0096ae"/><rect width="5.11" height="7.39" x="153.13" y="366.15" fill="#0096ae"/><rect width="5.11" height="7.39" x="140.92" y="366.15" fill="#0096ae"/><polygon fill="#e2e4e8" points="220.58 321.29 198.99 298.4 177.4 321.29 220.58 321.29"/><polygon fill="#ff793c" points="136.8 321.29 155.18 298.4 198.99 298.4 177.4 321.29 136.8 321.29"/><rect width="16.75" height="14.55" x="190.62" y="365.49" fill="#6b6a5c" transform="rotate(180 198.99 372.77)"/><rect width="8.38" height="14.55" x="190.62" y="365.49" fill="#5b5a4d" transform="rotate(180 194.805 372.77)"/><rect width="83.9" height=".5" x="136.68" y="362.87" fill="#abb0b7" transform="rotate(180 178.63 363.12)"/><rect width="40.66" height=".5" x="136.68" y="362.87" fill="#8d939e" transform="rotate(180 157.01 363.12)"/><rect width="83.9" height=".5" x="136.68" y="350.8" fill="#abb0b7" transform="rotate(180 178.63 351.055)"/><rect width="40.66" height=".5" x="136.68" y="350.8" fill="#8d939e" transform="rotate(180 157.01 351.055)"/><rect width="83.9" height=".5" x="136.68" y="338.57" fill="#abb0b7" transform="rotate(180 178.63 338.815)"/><rect width="40.66" height=".5" x="136.68" y="338.57" fill="#8d939e" transform="rotate(180 157.01 338.815)"/><rect width="83.9" height=".5" x="136.68" y="321.29" fill="#abb0b7" transform="rotate(180 178.63 321.54)"/><rect width="40.66" height=".5" x="136.68" y="321.29" fill="#8d939e" transform="rotate(180 157.01 321.54)"/><path fill="#245940" d="M118.36,359.73s3.84,1.39,5-3.74c0,0,2.6,1,4.15-.72a5.39,5.39,0,0,0,1.46-5,5.06,5.06,0,0,0,3.67-3.21c.94-2.77,0-5.27-1.55-5.88a5.07,5.07,0,0,0-.65-6c-1.67-2-4.86-1.06-4.86-1.06a3.8,3.8,0,0,0-3-4.18,4.49,4.49,0,0,0-4.25,1,5,5,0,0,0-4.42-1.4c-3.46.37-4,3-4,3a4.65,4.65,0,0,0-3.62,1.32,5.67,5.67,0,0,0-1,4.56s-1.92.5-2.17,3.25a4.86,4.86,0,0,0,1.57,4.24,5.36,5.36,0,0,0,.35,4.88,4.52,4.52,0,0,0,2.58,1.95,4.6,4.6,0,0,0,.86,3.34,3.68,3.68,0,0,0,3,1.35,3.07,3.07,0,0,0,3.47,2.43A26.45,26.45,0,0,1,118.36,359.73Z"/><path fill="#1c4533" d="M115,359.75a3.07,3.07,0,0,1-3.47-2.43,3.68,3.68,0,0,1-3-1.35,4.6,4.6,0,0,1-.86-3.34,4.52,4.52,0,0,1-2.58-1.95,5.36,5.36,0,0,1-.35-4.88,4.86,4.86,0,0,1-1.57-4.24c.25-2.75,2.17-3.25,2.17-3.25a5.67,5.67,0,0,1,1-4.56,4.65,4.65,0,0,1,3.62-1.32s.53-2.63,4-3a5,5,0,0,1,4.42,1.4v28.9A26.45,26.45,0,0,0,115,359.75Z"/><path fill="#986b54" d="M122.25,380A140,140,0,0,1,120,365.56c-.91-8.61,1.72-15.55,4.15-17.75l-.71-.79s-3.2,4.05-3.63,6.89l-.45-11.35h-1.59l-.35,4-4-4h-.57l4.45,5.2-.1,2.3s-1.55-3.55-6.6-4.46l-.38.34s5.11.88,6.52,5.84a94.21,94.21,0,0,1-.73,13.27,88,88,0,0,1-3.43,15Z"/><path fill="#245940" d="M125.52,349.05s-2.87-.11-2.83-2.67,5,0,5,0Z"/><path fill="#1c4533" d="M113.84,341.62s.47,1.35-1.25,2.16,0-2.37,0-2.37Z"/><path fill="#1c4533" d="M111,344.65a1.68,1.68,0,0,1-.3,2.71c-1.76,1.31,0-2.71,0-2.71Z"/><path fill="#1c4533" d="M125.89,340.32a2.24,2.24,0,0,0-2.33-2.66s-.38-2.16-2.71-1.24c0,0,2.14.09,2.25,1.67C123.1,338.09,125.71,338,125.89,340.32Z"/><path fill="#245940" d="M113.11,338.59a2.23,2.23,0,0,0-3.51.31s-2-1-2.61,1.46c0,0,1.34-1.68,2.69-.83C109.68,339.53,111.11,337.34,113.11,338.59Z"/><path fill="#245940" d="M116.09,333.65a3.29,3.29,0,0,0-3.76.77S113.13,331.82,116.09,333.65Z"/><path fill="#1c4533" d="M128.64,346.36a3.32,3.32,0,0,0-3.27-2S127.73,343,128.64,346.36Z"/><path fill="#1c4533" d="M124.66,348.89a3.65,3.65,0,0,1-2-2.51A2.28,2.28,0,0,0,124.66,348.89Z"/><path fill="#245940" d="M113.9,342.05a1.92,1.92,0,0,1-1.31,1.73s.06.57-.76.62a1,1,0,0,0,.54-.91A2.34,2.34,0,0,0,113.9,342.05Z"/><path fill="#245940" d="M111,344.65a1.91,1.91,0,0,1,.49,1.73,1.5,1.5,0,0,1-1.29,1.09A2.22,2.22,0,0,0,111,344.65Z"/><path fill="#895b46" d="M116.72,351.78c-1.41-5-6.52-5.84-6.52-5.84l.38-.34c5,.91,6.6,4.46,6.6,4.46l.1-2.3-4.45-5.2h.57l4,4,.35-4h.57V380h-5.8a88,88,0,0,0,3.43-15A94.21,94.21,0,0,0,116.72,351.78Z"/><path fill="#1c4533" d="M120.83,343.78a3.19,3.19,0,0,1-2.16-1.22,1.52,1.52,0,0,1-1.79.61c-1.12-.44.31-2.13.31-2.13h3.64Z"/><polygon fill="#245940" points="118.36 342.66 118.36 340.76 120.64 340.76 120.57 343.68 119.73 343.45 118.67 342.56 118.36 342.66"/><path fill="#245940" d="M120.83,343.78a3.13,3.13,0,0,1-2.16-1.22,1.51,1.51,0,0,1-2.11.37,2.54,2.54,0,0,0,2.13-.88A5.48,5.48,0,0,0,120.83,343.78Z"/><polygon fill="#245940" points="120.19 340.99 120.19 346.38 122.68 344.08 121.96 340.99 120.19 340.99"/><path fill="#579669" d="M135.05,362s3.42,1.23,4.44-3.33c0,0,2.32.87,3.7-.64a4.8,4.8,0,0,0,1.3-4.49,4.51,4.51,0,0,0,3.27-2.85c.83-2.47,0-4.69-1.38-5.23a4.52,4.52,0,0,0-.58-5.37c-1.49-1.77-4.33-.94-4.33-.94a3.4,3.4,0,0,0-2.64-3.73,4,4,0,0,0-3.78.86,4.45,4.45,0,0,0-3.93-1.24,3.73,3.73,0,0,0-3.55,2.67,4.13,4.13,0,0,0-3.22,1.17,5,5,0,0,0-.93,4.06,3,3,0,0,0-1.94,2.89,4.34,4.34,0,0,0,1.4,3.78,4.76,4.76,0,0,0,.31,4.34,4,4,0,0,0,2.3,1.73,4.07,4.07,0,0,0,.77,3,3.25,3.25,0,0,0,2.68,1.19A2.75,2.75,0,0,0,132,362,23.33,23.33,0,0,1,135.05,362Z"/><path fill="#478457" d="M132,362a2.75,2.75,0,0,1-3.09-2.17,3.25,3.25,0,0,1-2.68-1.19,4.07,4.07,0,0,1-.77-3,4,4,0,0,1-2.3-1.73,4.76,4.76,0,0,1-.31-4.34,4.34,4.34,0,0,1-1.4-3.78,3,3,0,0,1,1.94-2.89,5,5,0,0,1,.93-4.06,4.13,4.13,0,0,1,3.22-1.17,3.73,3.73,0,0,1,3.55-2.67,4.45,4.45,0,0,1,3.93,1.24V362A23.33,23.33,0,0,0,132,362Z"/><path fill="#986b54" d="M138.52,380a123.37,123.37,0,0,1-2-12.89c-.81-7.66,1.53-13.83,3.7-15.79l-.63-.7s-2.86,3.6-3.23,6.13l-.41-10.1h-1.41l-.31,3.6-3.6-3.6h-.51l4,4.62-.09,2.05a7.82,7.82,0,0,0-5.88-4l-.34.3a7.71,7.71,0,0,1,5.81,5.19,83.64,83.64,0,0,1-.66,11.81,78.34,78.34,0,0,1-3,13.34Z"/><path fill="#579669" d="M141.43,352.46s-2.56-.09-2.53-2.37,4.48,0,4.48,0Z"/><path fill="#478457" d="M131,345.85s.42,1.2-1.11,1.92,0-2.1,0-2.1Z"/><path fill="#478457" d="M128.51,348.55a1.5,1.5,0,0,1-.27,2.41c-1.56,1.17,0-2.41,0-2.41Z"/><path fill="#478457" d="M141.75,344.69a2,2,0,0,0-2.07-2.36,1.6,1.6,0,0,0-2.41-1.11s1.91.09,2,1.5C139.27,342.72,141.6,342.59,141.75,344.69Z"/><path fill="#579669" d="M130.39,343.16a2,2,0,0,0-3.13.27s-1.76-.86-2.32,1.3c0,0,1.19-1.49,2.39-.74C127.33,344,128.6,342,130.39,343.16Z"/><path fill="#579669" d="M133,338.76a3,3,0,0,0-3.35.69S130.4,337.14,133,338.76Z"/><path fill="#478457" d="M144.2,350.07a2.94,2.94,0,0,0-2.91-1.79S143.39,347.08,144.2,350.07Z"/><path fill="#478457" d="M140.66,352.32a3.26,3.26,0,0,1-1.76-2.23A2,2,0,0,0,140.66,352.32Z"/><path fill="#579669" d="M131.08,346.23a1.69,1.69,0,0,1-1.16,1.54s.05.51-.68.56a.92.92,0,0,0,.48-.81A2.08,2.08,0,0,0,131.08,346.23Z"/><path fill="#579669" d="M128.51,348.55a1.69,1.69,0,0,1,.43,1.54,1.33,1.33,0,0,1-1.15,1A2,2,0,0,0,128.51,348.55Z"/><path fill="#895b46" d="M133.6,354.89a7.71,7.71,0,0,0-5.81-5.19l.34-.3a7.82,7.82,0,0,1,5.88,4l.09-2.05-4-4.62h.51l3.6,3.6.31-3.6h.5V380H129.9a78.34,78.34,0,0,0,3-13.34A83.64,83.64,0,0,0,133.6,354.89Z"/><path fill="#478457" d="M137.25,347.77a2.84,2.84,0,0,1-1.92-1.08,1.35,1.35,0,0,1-1.59.54c-1-.39.27-1.89.27-1.89h3.24Z"/><polygon fill="#579669" points="135.05 346.78 135.05 345.09 137.08 345.09 137.02 347.69 136.28 347.48 135.33 346.69 135.05 346.78"/><path fill="#579669" d="M137.25,347.77a2.74,2.74,0,0,1-1.92-1.08,1.35,1.35,0,0,1-1.88.33,2.25,2.25,0,0,0,1.9-.79A4.81,4.81,0,0,0,137.25,347.77Z"/><polygon fill="#579669" points="136.68 345.29 136.68 350.09 138.9 348.04 138.26 345.29 136.68 345.29"/><path fill="#245940" d="M491.94,357.56s4.25,1.54,5.52-4.14c0,0,2.88,1.08,4.6-.8a6,6,0,0,0,1.62-5.57,5.61,5.61,0,0,0,4.06-3.55c1-3.07,0-5.83-1.71-6.51a5.62,5.62,0,0,0-.73-6.68c-1.84-2.19-5.38-1.16-5.38-1.16a4.22,4.22,0,0,0-3.28-4.64,5,5,0,0,0-4.7,1.07,5.5,5.5,0,0,0-4.88-1.54c-3.83.4-4.42,3.31-4.42,3.31a5.13,5.13,0,0,0-4,1.46,6.3,6.3,0,0,0-1.16,5.05s-2.13.55-2.41,3.59a5.41,5.41,0,0,0,1.74,4.7,5.94,5.94,0,0,0,.39,5.4,5,5,0,0,0,2.86,2.16,5.08,5.08,0,0,0,.95,3.7,4.07,4.07,0,0,0,3.34,1.48s.42,2.84,3.85,2.7A31.46,31.46,0,0,1,491.94,357.56Z"/><path fill="#1c4533" d="M488.19,357.59c-3.43.14-3.85-2.7-3.85-2.7a4.07,4.07,0,0,1-3.34-1.48,5.08,5.08,0,0,1-.95-3.7,5,5,0,0,1-2.86-2.16,5.94,5.94,0,0,1-.39-5.4,5.41,5.41,0,0,1-1.74-4.7c.28-3,2.41-3.59,2.41-3.59a6.3,6.3,0,0,1,1.16-5.05,5.13,5.13,0,0,1,4-1.46s.59-2.91,4.42-3.31a5.5,5.5,0,0,1,4.88,1.54v32A31.46,31.46,0,0,0,488.19,357.59Z"/><path fill="#986b54" d="M496.25,380a155.74,155.74,0,0,1-2.47-16c-1-9.53,1.91-17.2,4.6-19.64l-.79-.87s-3.55,4.48-4,7.62l-.51-12.56h-1.76l-.38,4.48-4.47-4.48h-.64l4.93,5.75-.11,2.55s-1.71-3.92-7.3-4.93l-.43.38s5.65,1,7.22,6.46a103.14,103.14,0,0,1-.81,14.68c-1.74,11-3.79,16.59-3.79,16.59Z"/><path fill="#245940" d="M499.87,345.74s-3.18-.11-3.14-2.95,5.57,0,5.57,0Z"/><path fill="#1c4533" d="M486.94,337.52s.52,1.49-1.38,2.39,0-2.62,0-2.62Z"/><path fill="#1c4533" d="M483.8,340.87a1.86,1.86,0,0,1-.33,3c-2,1.46,0-3,0-3Z"/><path fill="#1c4533" d="M500.27,336.08a2.47,2.47,0,0,0-2.57-2.94s-.42-2.39-3-1.38c0,0,2.38.11,2.5,1.86C497.19,333.62,500.08,333.47,500.27,336.08Z"/><path fill="#245940" d="M486.14,334.17a2.47,2.47,0,0,0-3.89.34s-2.19-1.07-2.89,1.61c0,0,1.48-1.85,3-.92C482.33,335.2,483.92,332.78,486.14,334.17Z"/><path fill="#245940" d="M489.44,328.7a3.67,3.67,0,0,0-4.17.86S486.15,326.68,489.44,328.7Z"/><path fill="#1c4533" d="M503.32,342.76a3.65,3.65,0,0,0-3.62-2.22S502.31,339.05,503.32,342.76Z"/><path fill="#1c4533" d="M498.92,345.57a4.06,4.06,0,0,1-2.19-2.78A2.53,2.53,0,0,0,498.92,345.57Z"/><path fill="#245940" d="M487,338a2.13,2.13,0,0,1-1.45,1.92s.06.63-.85.69a1.13,1.13,0,0,0,.61-1A2.6,2.6,0,0,0,487,338Z"/><path fill="#245940" d="M483.8,340.87a2.13,2.13,0,0,1,.54,1.92,1.65,1.65,0,0,1-1.43,1.2A2.46,2.46,0,0,0,483.8,340.87Z"/><path fill="#895b46" d="M490.13,348.77c-1.57-5.5-7.22-6.46-7.22-6.46l.43-.38c5.59,1,7.3,4.93,7.3,4.93l.11-2.55-4.93-5.75h.64l4.47,4.48.38-4.48h.63V380h-6.41s2.05-5.56,3.79-16.59A103.14,103.14,0,0,0,490.13,348.77Z"/><path fill="#1c4533" d="M494.68,339.91a3.51,3.51,0,0,1-2.39-1.35,1.7,1.7,0,0,1-2,.68c-1.23-.49.34-2.36.34-2.36h4Z"/><polygon fill="#245940" points="491.94 338.68 491.94 336.57 494.46 336.57 494.39 339.8 493.46 339.54 492.29 338.56 491.94 338.68"/><path fill="#245940" d="M494.68,339.91a3.4,3.4,0,0,1-2.39-1.35A1.67,1.67,0,0,1,490,339a2.78,2.78,0,0,0,2.36-1A6,6,0,0,0,494.68,339.91Z"/><polygon fill="#245940" points="493.97 336.82 493.97 342.79 496.73 340.24 495.93 336.82 493.97 336.82"/><path fill="#579669" d="M469.39,366.46s2.57.93,3.33-2.5a2.75,2.75,0,0,0,2.78-.48,3.59,3.59,0,0,0,1-3.37,3.37,3.37,0,0,0,2.45-2.15c.63-1.85,0-3.52-1-3.92a3.4,3.4,0,0,0-.44-4c-1.11-1.33-3.25-.71-3.25-.71a2.53,2.53,0,0,0-2-2.79,3,3,0,0,0-2.84.64,3.32,3.32,0,0,0-2.95-.93,2.8,2.8,0,0,0-2.67,2,3.1,3.1,0,0,0-2.42.88,3.8,3.8,0,0,0-.7,3.05,2.27,2.27,0,0,0-1.46,2.17,3.27,3.27,0,0,0,1.05,2.84,3.56,3.56,0,0,0,.24,3.26,3,3,0,0,0,1.72,1.31,3.07,3.07,0,0,0,.58,2.23,2.46,2.46,0,0,0,2,.9,2.06,2.06,0,0,0,2.32,1.63A17.33,17.33,0,0,1,469.39,366.46Z"/><path fill="#478457" d="M467.12,366.48a2.06,2.06,0,0,1-2.32-1.63,2.46,2.46,0,0,1-2-.9,3.07,3.07,0,0,1-.58-2.23,3,3,0,0,1-1.72-1.31,3.56,3.56,0,0,1-.24-3.26,3.27,3.27,0,0,1-1.05-2.84,2.27,2.27,0,0,1,1.46-2.17,3.8,3.8,0,0,1,.7-3.05,3.1,3.1,0,0,1,2.42-.88,2.8,2.8,0,0,1,2.67-2,3.32,3.32,0,0,1,2.95.93v19.32A17.33,17.33,0,0,0,467.12,366.48Z"/><path fill="#986b54" d="M472,380a94.07,94.07,0,0,1-1.49-9.68c-.61-5.76,1.15-10.39,2.78-11.87l-.48-.53s-2.14,2.71-2.42,4.61l-.31-7.59H469l-.23,2.71L466.07,355h-.38l3,3.48L468.6,360a5.85,5.85,0,0,0-4.41-3l-.26.23a5.78,5.78,0,0,1,4.37,3.9,62.44,62.44,0,0,1-.5,8.87,59,59,0,0,1-2.28,10Z"/><path fill="#579669" d="M474.18,359.32s-1.92-.07-1.9-1.78,3.37,0,3.37,0Z"/><path fill="#478457" d="M466.37,354.35s.31.9-.84,1.45,0-1.58,0-1.58Z"/><path fill="#478457" d="M464.47,356.38a1.12,1.12,0,0,1-.2,1.81c-1.18.88,0-1.81,0-1.81Z"/><path fill="#478457" d="M474.42,353.48a1.49,1.49,0,0,0-1.55-1.77,1.21,1.21,0,0,0-1.82-.84s1.44.07,1.51,1.13C472.56,352,474.31,351.9,474.42,353.48Z"/><path fill="#579669" d="M465.88,352.33a1.49,1.49,0,0,0-2.35.2s-1.32-.64-1.74,1c0,0,.89-1.12,1.79-.56A1.71,1.71,0,0,1,465.88,352.33Z"/><path fill="#579669" d="M467.88,349a2.23,2.23,0,0,0-2.52.52S465.89,347.8,467.88,349Z"/><path fill="#478457" d="M476.26,357.52a2.2,2.2,0,0,0-2.19-1.34S475.65,355.27,476.26,357.52Z"/><path fill="#478457" d="M473.6,359.22a2.46,2.46,0,0,1-1.32-1.68A1.53,1.53,0,0,0,473.6,359.22Z"/><path fill="#579669" d="M466.41,354.64a1.29,1.29,0,0,1-.88,1.16s0,.38-.51.41a.68.68,0,0,0,.37-.61A1.54,1.54,0,0,0,466.41,354.64Z"/><path fill="#579669" d="M464.47,356.38a1.28,1.28,0,0,1,.33,1.16,1,1,0,0,1-.87.72A1.48,1.48,0,0,0,464.47,356.38Z"/><path fill="#895b46" d="M468.3,361.15a5.78,5.78,0,0,0-4.37-3.9l.26-.23a5.85,5.85,0,0,1,4.41,3l.07-1.54-3-3.48h.38l2.71,2.71L469,355h.38V380h-3.87a59,59,0,0,0,2.28-10A62.44,62.44,0,0,0,468.3,361.15Z"/><path fill="#478457" d="M471,355.8a2.13,2.13,0,0,1-1.44-.82,1,1,0,0,1-1.2.41c-.75-.29.2-1.42.2-1.42H471Z"/><polygon fill="#579669" points="469.39 355.05 469.39 353.78 470.91 353.78 470.87 355.73 470.31 355.58 469.6 354.98 469.39 355.05"/><path fill="#579669" d="M471,355.8a2.1,2.1,0,0,1-1.44-.82,1,1,0,0,1-1.42.25,1.7,1.7,0,0,0,1.43-.59A3.64,3.64,0,0,0,471,355.8Z"/><polygon fill="#579669" points="470.61 353.93 470.61 357.54 472.28 356 471.8 353.93 470.61 353.93"/><path fill="#579669" d="M541.86,362s3.43,1.23,4.45-3.33c0,0,2.31.87,3.69-.64a4.8,4.8,0,0,0,1.3-4.49,4.51,4.51,0,0,0,3.27-2.85c.83-2.47,0-4.69-1.38-5.23a4.52,4.52,0,0,0-.58-5.37c-1.49-1.77-4.33-.94-4.33-.94a3.4,3.4,0,0,0-2.63-3.73,4.05,4.05,0,0,0-3.79.86,4.44,4.44,0,0,0-3.92-1.24,3.73,3.73,0,0,0-3.55,2.67,4.15,4.15,0,0,0-3.23,1.17,5.07,5.07,0,0,0-.93,4.06,3,3,0,0,0-1.93,2.89,4.35,4.35,0,0,0,1.39,3.78,4.74,4.74,0,0,0,.32,4.34,4,4,0,0,0,2.29,1.73,4.13,4.13,0,0,0,.77,3,3.25,3.25,0,0,0,2.68,1.19,2.75,2.75,0,0,0,3.1,2.17A23.2,23.2,0,0,1,541.86,362Z"/><path fill="#478457" d="M538.85,362a2.75,2.75,0,0,1-3.1-2.17,3.25,3.25,0,0,1-2.68-1.19,4.13,4.13,0,0,1-.77-3,4,4,0,0,1-2.29-1.73,4.74,4.74,0,0,1-.32-4.34,4.35,4.35,0,0,1-1.39-3.78,3,3,0,0,1,1.93-2.89,5.07,5.07,0,0,1,.93-4.06,4.15,4.15,0,0,1,3.23-1.17,3.73,3.73,0,0,1,3.55-2.67,4.44,4.44,0,0,1,3.92,1.24V362A23.2,23.2,0,0,0,538.85,362Z"/><path fill="#986b54" d="M545.33,380a126.74,126.74,0,0,1-2-12.89c-.81-7.66,1.54-13.83,3.7-15.79l-.63-.7s-2.85,3.6-3.23,6.13l-.4-10.1h-1.42l-.31,3.6-3.59-3.6h-.52l4,4.62-.09,2.05a7.81,7.81,0,0,0-5.87-4l-.34.3a7.7,7.7,0,0,1,5.8,5.19,82.94,82.94,0,0,1-.65,11.81,77.56,77.56,0,0,1-3,13.34Z"/><path fill="#579669" d="M548.24,352.46s-2.55-.09-2.52-2.37,4.47,0,4.47,0Z"/><path fill="#478457" d="M537.85,345.85s.42,1.2-1.12,1.92,0-2.1,0-2.1Z"/><path fill="#478457" d="M535.32,348.55a1.5,1.5,0,0,1-.27,2.41c-1.56,1.17,0-2.41,0-2.41Z"/><path fill="#478457" d="M548.57,344.69a2,2,0,0,0-2.07-2.36,1.61,1.61,0,0,0-2.42-1.11s1.91.09,2,1.5C546.09,342.72,548.41,342.59,548.57,344.69Z"/><path fill="#579669" d="M537.2,343.16a2,2,0,0,0-3.13.27s-1.76-.86-2.32,1.3c0,0,1.19-1.49,2.39-.74C534.14,344,535.41,342,537.2,343.16Z"/><path fill="#579669" d="M539.85,338.76a3,3,0,0,0-3.35.69S537.21,337.14,539.85,338.76Z"/><path fill="#478457" d="M551,350.07a2.94,2.94,0,0,0-2.91-1.79S550.2,347.08,551,350.07Z"/><path fill="#478457" d="M547.48,352.32a3.26,3.26,0,0,1-1.76-2.23A2,2,0,0,0,547.48,352.32Z"/><path fill="#579669" d="M537.9,346.23a1.71,1.71,0,0,1-1.17,1.54s0,.51-.68.56a.92.92,0,0,0,.49-.81A2.1,2.1,0,0,0,537.9,346.23Z"/><path fill="#579669" d="M535.32,348.55a1.69,1.69,0,0,1,.43,1.54,1.32,1.32,0,0,1-1.14,1A2,2,0,0,0,535.32,348.55Z"/><path fill="#895b46" d="M540.41,354.89a7.7,7.7,0,0,0-5.8-5.19l.34-.3a7.81,7.81,0,0,1,5.87,4l.09-2.05-4-4.62h.52l3.59,3.6.31-3.6h.5V380h-5.15a77.56,77.56,0,0,0,3-13.34A82.94,82.94,0,0,0,540.41,354.89Z"/><path fill="#478457" d="M544.07,347.77a2.86,2.86,0,0,1-1.93-1.08,1.35,1.35,0,0,1-1.59.54c-1-.39.27-1.89.27-1.89h3.25Z"/><polygon fill="#579669" points="541.86 346.78 541.86 345.09 543.89 345.09 543.84 347.69 543.09 347.48 542.14 346.69 541.86 346.78"/><path fill="#579669" d="M544.07,347.77a2.76,2.76,0,0,1-1.93-1.08,1.34,1.34,0,0,1-1.88.33,2.24,2.24,0,0,0,1.9-.79A4.79,4.79,0,0,0,544.07,347.77Z"/><polygon fill="#579669" points="543.5 345.29 543.5 350.09 545.71 348.04 545.07 345.29 543.5 345.29"/><path fill="#fff" d="M342.24,152.69a5.81,5.81,0,0,0,5.8-5.8.49.49,0,0,0-.49-.49.48.48,0,0,0-.48.49,4.83,4.83,0,1,1-9.66,0h-1A5.81,5.81,0,0,0,342.24,152.69Z"/><path fill="#fff" d="M352.87,152.69a5.81,5.81,0,0,0,5.79-5.8.48.48,0,1,0-1,0,4.83,4.83,0,1,1-9.66,0h-1A5.81,5.81,0,0,0,352.87,152.69Z"/><path fill="#fff" d="M363.5,152.69a5.81,5.81,0,0,0,5.79-5.8.48.48,0,1,0-1,0,4.84,4.84,0,0,1-9.67,0h-1A5.81,5.81,0,0,0,363.5,152.69Z"/><path fill="#fff" d="M374.12,152.69a5.81,5.81,0,0,0,5.8-5.8.49.49,0,1,0-1,0,4.83,4.83,0,1,1-9.66,0h-1A5.81,5.81,0,0,0,374.12,152.69Z"/><path fill="#fff" d="M353.47,140.4a5.8,5.8,0,0,0,5.79-5.8.48.48,0,1,0-1,0,4.83,4.83,0,1,1-9.66,0,.49.49,0,0,0-.49-.49.48.48,0,0,0-.48.49A5.8,5.8,0,0,0,353.47,140.4Z"/><path fill="#fff" d="M364.09,140.4a5.8,5.8,0,0,0,5.8-5.8.49.49,0,1,0-1,0,4.83,4.83,0,0,1-9.66,0,.48.48,0,1,0-1,0A5.8,5.8,0,0,0,364.09,140.4Z"/><path fill="#fff" d="M374.72,140.4a5.8,5.8,0,0,0,5.8-5.8.49.49,0,1,0-1,0,4.83,4.83,0,1,1-9.66,0,.49.49,0,1,0-1,0A5.8,5.8,0,0,0,374.72,140.4Z"/><path fill="#fff" d="M385.35,140.4a5.8,5.8,0,0,0,5.8-5.8.49.49,0,1,0-1,0,4.83,4.83,0,1,1-9.66,0,.49.49,0,1,0-1,0A5.8,5.8,0,0,0,385.35,140.4Z"/><path fill="#fff" d="M354,165a5.8,5.8,0,0,0,5.8-5.79.49.49,0,0,0-1,0,4.83,4.83,0,1,1-9.66,0h-1A5.81,5.81,0,0,0,354,165Z"/><path fill="#fff" d="M364.65,165a5.8,5.8,0,0,0,5.8-5.79.49.49,0,0,0-1,0,4.83,4.83,0,1,1-9.66,0h-1A5.81,5.81,0,0,0,364.65,165Z"/><path fill="#fff" d="M375.28,165a5.8,5.8,0,0,0,5.8-5.79.49.49,0,0,0-1,0,4.83,4.83,0,1,1-9.66,0h-1A5.8,5.8,0,0,0,375.28,165Z"/><path fill="#fff" d="M385.91,165a5.8,5.8,0,0,0,5.8-5.79.49.49,0,1,0-1,0,4.83,4.83,0,1,1-9.66,0h-1A5.8,5.8,0,0,0,385.91,165Z"/><path fill="#f5a78f" d="M163,193.88a22.58,22.58,0,0,1-2.58-.44,7.24,7.24,0,0,0-1.56-.2,37.16,37.16,0,0,0-9.56,1.37l2.22,9c3.38-1.78,9.74-3.67,12.33-5.87s.69-2.77,1.19-3.49C164.4,194.08,163.57,194,163,193.88Z"/><path fill="#d84d84" d="M155.26,192.57c3.63,2.12,5.23,7.71,2.12,9.62-10.61,6.53-30,11.12-36.89,7.91S94.61,177,99.37,169.75c1.6-2.44,2.2-5.35,6.42-.81,8.28,8.92,19.82,27.88,19.82,27.88S145.78,194.46,155.26,192.57Z"/><path fill="#876368" d="M66.92,405c0-1.48,1.84-21.49,18.41-2.76,0,0,6.93,4.74-4.86,4.74C72.34,407,66.92,406.51,66.92,405Z"/><path fill="#876368" d="M135.61,404c-1.74-8.94-.1-21.77,25.63-2.08,3.41,3.34-8,4.42-15,3.32C137.92,406.6,135.61,404,135.61,404Z"/><path fill="#f5a78f" d="M70.87,395.71c1.19.94,4.17,1.52,5.81-.63s-1.43-17.36-1.43-17.36H65.64S68.88,394.14,70.87,395.71Z"/><path fill="#f5a78f" d="M139.79,394.31c7,0,2.75-6.76,1.9-18.48-.83-3.75-8.6,0-8.6,0S132.54,394.29,139.79,394.31Z"/><path fill="#c67d6f" d="M65.71,247.29l-9.91,11s41.48,9.86,60.05-4.92l-10.06-11.94Z"/><path fill="#c26c79" d="M108.87,249.94c-21.1-4.55-27.55,0-47.06,5.31C55.83,323.72,67.56,390,67.56,390c1.13,2.61,9.28,1.85,10-1.06,6.43-45.33,1.86-72,9.74-112.63.15-2,3.9-3.19,4.15-1.23,10.86,36.71,30.79,64.39,42.29,113.39,3.3,2.53,7.14,1.77,10.71-.92C144.4,387.55,140.55,325.77,108.87,249.94Z"/><path fill="#ffe4da" d="M105.79,250.65a2.49,2.49,0,0,1-.43-.29c-7-7.73-1.61-75.9-12.15-87.48a56.29,56.29,0,0,0-13.88-.15c.53,11.29,3.31,79.88-6.8,88.2a44,44,0,0,1-6.82,4.6C79,256.35,92.52,254,105.79,250.65Z"/><path fill="#d84d84" d="M79.17,163.11c-10.44,1.09-23.17,3.57-23.31,8.43-.14,5.19,7.63,69.62-.06,86.77C97.07,257,79.69,174.4,79.17,163.11Z"/><path fill="#ac426c" d="M80.1,167.27s3.77,39.57,3.13,43.44c0,0-8.56-28.16-8-29.38s4.33-2.78,4.33-2.78-5.33-1.08-5-2.09S80.1,167.27,80.1,167.27Z"/><path fill="#d84d84" d="M107.76,175.07c0-7.29-8.11-11.45-16.33-12.7a16.85,16.85,0,0,1,2,2.62c.06.1.18.17.24.27,13.81,22.61-6.6,92.83,22.13,88.13C106.53,231.63,107.89,199.8,107.76,175.07Z"/><path fill="#ad406b" d="M92.71,163.06s5.63,9.48,6.48,46c0,0,5.34-25.75,4.45-29.19l-5-2.36s4.93-.63,5-1.75S92.71,163.06,92.71,163.06Z"/><path fill="#ac426c" d="M97.52,169.69s-5.32-11.25-10.28-11.13-16.08,7-16.08,7l20.75-2.64c.86,1.51,2.15,2.82,2.83,4.37Z"/><path fill="#f5a78f" d="M93.88,165.85s-1.6,9.48-16.24,1.46-3.57-6.24-3.57-6.24l16.42,0C91.76,162.56,94,165.56,93.88,165.85Z"/><path fill="#f5a78f" d="M84.9,231c-2.28-.15-28.38-4.51-36.21-13.82a7.15,7.15,0,0,1-2-5.63c1.54-12.48,8.09-29.63,10.55-35.77a6.71,6.71,0,0,1,1.33,1.57c3.76,5.79,4.63,19.7,1.76,28.08a7,7,0,0,0,.42,5.75c2.71,4.94,11.45,7.05,19.91,9.09,4.3,1,9.82,3.77,12.51,4.32C95.88,231,85.73,230.91,84.9,231Z"/><path fill="#d84d84" d="M56,170.86s-9.84,24.42-11.8,40.32,38.49,21.2,40.45,21.21c3.15,0,4.63-3,3-9.8-1.09-4.56-28.77-4.94-24.85-16.38S64.48,171.62,56,170.86Z"/><path fill="#f5a78f" d="M81.18,164.21c-3.65-2.54-7.79-24.9-2.25-32.19s10-13.48,20.88-6.86,6.2,30.7,1.76,32.94-10.06,1.16-10.06,1.16.12,4.27-.57,5.32C89.09,167.43,85.43,167.16,81.18,164.21Z"/><path fill="#f5a78f" d="M160.23,196.63c1.29,1.87,3.54,2.84,9.8,1.53,5.62-1.18,11.36-6.18,11.85-9.28.35-2.22-7.33-.86-13.49.2C161.71,190.23,156.61,191.37,160.23,196.63Z"/><path fill="#f5a78f" d="M89.1,229.59c2,4.54,22.51,2,22.64-3.83S83.87,217.64,89.1,229.59Z"/><path fill="#c67d6f" d="M102,128c-1.73,5.19-5.43,9.07-8.24,9.07s.65,15.13-7.13,18.16-.33,12.18-7.31,13.95c-4.11,1.05-10.18-.78-14.56-2.57,0,0-5.43-17.17-.15-20.95,9-6.44,5.86-7.17,6.88-13.18,1.08-6.28,11.06-19.07,19.22-15.86s8.68-1,13.65,3.44,2,18.48,2,18.48C105.2,133.78,103.82,129.93,102,128Z"/></g></svg>